<?xml version="1.0" encoding="utf-8"?>
<!-- Generator: Adobe Illustrator 27.5.0, SVG Export Plug-In . SVG Version: 6.00 Build 0)  -->
<svg version="1.1" xmlns="http://www.w3.org/2000/svg" xmlns:xlink="http://www.w3.org/1999/xlink" x="0px" y="0px"
	 viewBox="0 0 500 500" style="enable-background:new 0 0 500 500;" xml:space="preserve">
<g id="Floor">
	<ellipse id="Floor_6_" style="fill:#F5F5F5;" cx="251.294" cy="339.679" rx="242.42" ry="146.765"/>
</g>
<g id="Clouds">
	<g id="Clouds_4_">
		<g id="XMLID_791_">
			<path id="XMLID_794_" style="fill:#EBEBEB;" d="M395.639,70.334l7.273,4.199c-0.036-0.325-0.061-0.647-0.061-0.963v-2.107
				c0-3.75,2.632-5.269,5.88-3.395c1.315,0.759,2.525,1.962,3.504,3.37c0.532-4.715,4.231-6.471,8.724-3.877
				c4.858,2.805,8.796,9.626,8.796,15.236v3.152c0,1.453-0.269,2.677-0.745,3.652l6.041,3.488c1.801,1.04,3.261,3.569,3.261,5.649
				c0,2.08-1.46,2.923-3.261,1.883l-39.412-22.754c-1.801-1.04-3.261-3.569-3.261-5.649
				C392.377,70.137,393.838,69.294,395.639,70.334z"/>
		</g>
		<g id="XMLID_789_">
			<path id="XMLID_790_" style="fill:#EBEBEB;" d="M346.516,79.774l4.012,1.543v-8.838c0-7.006,5.589-8.686,11.656-5.183l0,0
				c6.068,3.503,10.986,12.023,10.986,19.029v1.283c1.377-0.549,3.154-0.336,5.098,0.786l0,0c4.366,2.521,7.906,8.652,7.906,13.693
				v0.583l5.594,3.23c2.875,1.66,5.206,5.697,5.206,9.018c0,3.32-2.331,4.666-5.206,3.006l-45.253-26.127
				c-2.875-1.66-5.207-5.697-5.207-9.018C341.309,79.46,343.64,78.114,346.516,79.774z"/>
		</g>
	</g>
</g>
<g id="Shadows">
	<polygon id="Shadow_16_" style="fill:#E0E0E0;" points="56.54,352.451 21.76,332.473 205.561,226.355 238.54,248.189 	"/>
	<ellipse id="Shadow_17_" style="fill:#E6E6E6;" cx="424.82" cy="388.196" rx="41.106" ry="23.733"/>
	<polygon id="Shadow_9_" style="fill:#E0E0E0;" points="195.483,432.688 160.703,412.71 344.504,306.592 377.482,328.427 	"/>
	<polygon id="Shadow_13_" style="fill:#E0E0E0;" points="128.268,393.863 93.488,373.885 277.289,267.767 310.267,289.602 	"/>
</g>
<g id="Plant">
	<g id="Plants_1_">
		<g id="XMLID_172_">
			<g id="XMLID_177_">
				<path id="XMLID_178_" style="fill:#27DEBF;" d="M440.96,365.694c0,0-0.71-10.909,3.113-20.164
					c3.824-9.255,10.198-15.75,16.918-17.517c6.72-1.767,13.357,3.514,6.838,9.135c-6.519,5.621-18.687,12.352-21.75,29.536
					L440.96,365.694z"/>
			</g>
			<g id="XMLID_175_" style="opacity:0.15;">
				<path id="XMLID_176_" d="M440.96,365.694c0,0-0.71-10.909,3.113-20.164c3.824-9.255,10.198-15.75,16.918-17.517
					c6.72-1.767,13.357,3.514,6.838,9.135c-6.519,5.621-18.687,12.352-21.75,29.536L440.96,365.694z"/>
			</g>
			<g id="XMLID_173_">
				<path id="XMLID_174_" style="fill:#FFFFFF;" d="M442.458,362.558c-0.025,0-0.051-0.002-0.076-0.008
					c-0.2-0.042-0.328-0.238-0.286-0.438c4.003-19.014,16.367-28.88,22.346-31.44c0.187-0.082,0.405,0.007,0.486,0.194
					c0.08,0.188-0.006,0.406-0.195,0.486c-5.856,2.508-17.973,12.196-21.913,30.912C442.784,362.439,442.63,362.558,442.458,362.558
					z"/>
			</g>
		</g>
		<g id="XMLID_164_">
			<g id="XMLID_169_">
				<g id="XMLID_170_">
					<path id="XMLID_171_" style="fill:#27DEBF;" d="M475.537,353.194c-0.331,1.421-1.631,2.376-2.86,3.167
						c-1.222,0.784-2.562,1.641-3.045,3.018c-0.971,2.779,2.08,5.843,0.99,8.577c-0.458,1.146-1.569,1.916-2.721,2.358
						c-0.956,0.375-1.966,0.566-2.956,0.843c-0.486,0.082-0.971,0.138-1.451,0.162c-1.418,0.063-2.927,0.284-4.056,1.232
						c-1.775,1.497-1.907,4.126-2.745,6.293c-1.005,2.595-3.276,4.602-5.897,5.482c-2.199,0.729-5.677,0.869-6.45-0.018
						c-0.588-0.674,0.297-3.213,0.157-4.096c-0.358-2.266-0.501-4.565-0.427-6.857c0.036-1.116,0.066-2.026-0.151-3.124
						c-0.228-1.151-0.449-2.303-0.661-3.457c-0.23-1.249-0.709-2.173-0.5-3.514c0.199-1.279,0.759-2.493,1.324-3.646
						c0.561-1.146,1.133-2.286,1.715-3.421c0.686-1.339,1.397-2.685,2.391-3.814c1.726-1.96,4.291-3.154,6.902-3.215
						c2.164-0.05,4.441,0.737,6.584,0.225c2.084-0.498,4.037-1.454,6.212-1.715c2.275-0.273,4.747,0.242,6.396,1.924
						C475.216,350.543,475.836,351.905,475.537,353.194z"/>
				</g>
			</g>
			<g id="XMLID_167_">
				<path id="XMLID_168_" style="fill:#FFFFFF;" d="M445.133,378.362c-0.009,0-0.018,0-0.027-0.001
					c-0.18-0.013-0.317-0.17-0.303-0.351c1.481-20.599,21.592-27.376,26.49-27.95c0.178-0.019,0.343,0.108,0.365,0.288
					c0.021,0.18-0.108,0.343-0.288,0.365c-4.792,0.561-24.463,7.191-25.912,27.345C445.445,378.229,445.302,378.361,445.133,378.362
					z"/>
			</g>
			<g id="XMLID_165_">
				<path id="XMLID_166_" style="fill:#FFFFFF;" d="M466.182,364.047c-0.065,0-0.13-0.018-0.188-0.058
					c-0.062-0.043-6.32-4.229-14.811-1.275c-0.171,0.057-0.359-0.031-0.418-0.202c-0.06-0.171,0.031-0.359,0.202-0.418
					c8.818-3.067,15.334,1.309,15.399,1.354c0.15,0.103,0.187,0.307,0.085,0.457C466.388,363.996,466.286,364.047,466.182,364.047z"
					/>
			</g>
		</g>
	</g>
</g>
<g id="Windows">
	<g id="Window_5_">
		<path id="XMLID_777_" style="fill:#27DEBF;" d="M239.735,92.509l-3.582-2.084L53.373,195.953v152.833
			c0,1.215,0.426,2.07,1.115,2.47l0,0l0.005,0.003l0,0l3.581,2.083v0c0.691,0.4,1.647,0.342,2.702-0.267l175.14-101.117
			c2.11-1.218,3.82-4.181,3.82-6.617L239.735,92.509z"/>
		<path id="XMLID_776_" style="opacity:0.15;" d="M239.735,92.509l-3.582-2.084L53.373,195.953v152.833
			c0,1.215,0.426,2.07,1.115,2.47l0,0l0.005,0.003l0,0l3.581,2.083v0c0.691,0.4,1.647,0.342,2.702-0.267l175.14-101.117
			c2.11-1.218,3.82-4.181,3.82-6.617L239.735,92.509z"/>
		<g id="XMLID_772_">
			<path style="fill:#27DEBF;" d="M56.955,350.871c0,2.436,1.711,3.424,3.821,2.206l175.14-101.117
				c2.11-1.218,3.82-4.181,3.82-6.617l-0.001-152.832L56.955,198.037V350.871z"/>
		</g>
		<g id="XMLID_766_" style="opacity:0.75;">
			<path style="fill:#FFFFFF;" d="M56.955,350.871c0,2.436,1.711,3.424,3.821,2.206l175.14-101.117
				c2.11-1.218,3.82-4.181,3.82-6.617l-0.001-152.832L56.955,198.037V350.871z"/>
		</g>
		<g id="XMLID_730_">
			<polygon id="XMLID_765_" style="fill:#27DEBF;" points="56.955,198.037 56.955,214.579 239.734,109.052 239.735,92.509 			"/>
			<path id="XMLID_764_" style="fill:#FAFAFA;" d="M171.641,138.31l0.001,3.561c0,0.728,0.516,1.026,1.146,0.662l56.196-32.445
				l0-6.207l-56.196,32.445C172.157,136.689,171.641,137.583,171.641,138.31z"/>
			<path id="XMLID_759_" style="fill:#455A64;" d="M235.006,100.404c0.633-0.365,1.146-0.069,1.146,0.662v3.561
				c0,0.731-0.513,1.62-1.146,1.985l-6.022,3.477l0-6.207L235.006,100.404z"/>
			<path id="XMLID_754_" style="fill:#FAFAFA;" d="M234.561,105.286l-0.672-0.209c0.069-0.285,0.108-0.578,0.108-0.865
				c0-0.687-0.223-1.21-0.612-1.435c-0.289-0.167-0.637-0.15-0.979,0.048c-0.753,0.435-1.342,1.661-1.342,2.793
				c0,0.687,0.223,1.21,0.612,1.435c0.132,0.076,0.276,0.114,0.426,0.114c0.179,0,0.367-0.054,0.553-0.161
				c0.452-0.261,0.843-0.811,1.085-1.452l0.673,0.21c0.025,0.008,0.05,0.011,0.074,0.011c0.106,0,0.205-0.068,0.238-0.175
				C234.765,105.466,234.692,105.327,234.561,105.286z M232.405,106.573c-0.186,0.108-0.348,0.124-0.48,0.047
				c-0.224-0.13-0.363-0.513-0.363-1.003c0-0.938,0.5-2.02,1.093-2.362c0.109-0.063,0.21-0.095,0.302-0.095
				c0.064,0,0.124,0.016,0.179,0.048c0.224,0.129,0.363,0.513,0.363,1.003C233.498,105.149,232.997,106.231,232.405,106.573z"/>
			<path id="XMLID_753_" style="fill:#263238;" d="M235.07,79.974c-0.693-0.425-1.663-0.378-2.737,0.242L57.194,181.333
				c-2.11,1.218-3.82,4.181-3.82,6.617v8.003l3.582,2.084L239.735,92.509v-8.004c0-1.211-0.423-2.062-1.107-2.463
				C237.986,81.667,235.691,80.355,235.07,79.974z"/>
			<path id="XMLID_752_" style="fill:#37474F;" d="M56.955,190.034c0-2.436,1.711-5.399,3.821-6.617L235.914,82.3
				c2.11-1.218,3.82-0.231,3.82,2.206v8.004L56.955,198.037V190.034z"/>
			<path id="XMLID_751_" style="fill:#455A64;" d="M238.666,82.065c-0.697-0.432-1.667-0.388-2.753,0.238L60.778,183.415
				c-1.059,0.609-2.012,1.659-2.7,2.85l-3.591-2.073c0.697-1.2,1.65-2.25,2.708-2.859l175.136-101.12
				c1.076-0.618,2.047-0.662,2.735-0.238c0.626,0.379,2.92,1.694,3.564,2.065C238.64,82.048,238.658,82.057,238.666,82.065z"/>
			<g id="XMLID_742_">
				<g id="XMLID_743_">
					<path id="XMLID_15_" style="fill:#27DEBF;" d="M218.232,96.637c-0.99,0.571-1.792,1.961-1.792,3.104
						c0,1.143,0.802,1.606,1.792,1.035c0.99-0.571,1.792-1.961,1.792-3.104C220.024,96.529,219.222,96.066,218.232,96.637z"/>
					<path style="fill:#27DEBF;" d="M224.504,93.025c-0.99,0.571-1.792,1.961-1.792,3.104c0,1.143,0.802,1.606,1.792,1.035
						c0.99-0.571,1.792-1.961,1.792-3.104C226.296,92.917,225.493,92.454,224.504,93.025z"/>
					<path id="XMLID_14_" style="fill:#27DEBF;" d="M230.775,89.413c-0.99,0.572-1.792,1.961-1.792,3.104s0.802,1.606,1.792,1.035
						c0.99-0.571,1.792-1.961,1.792-3.104C232.567,89.305,231.765,88.842,230.775,89.413z"/>
				</g>
			</g>
		</g>
		<g id="XMLID_446_">
			<path style="fill:#27DEBF;" d="M59.07,353.157c-1.048,0-1.673-0.855-1.673-2.286V214.834l34.96-20.184v139.684l-31.801,18.36
				C60.031,352.997,59.518,353.157,59.07,353.157L59.07,353.157z"/>
			<path style="fill:#F5F5F5;" d="M91.915,195.415v138.665l-31.58,18.233c-0.457,0.264-0.895,0.404-1.265,0.404
				c-1.112,0-1.232-1.29-1.232-1.845V215.089L91.915,195.415 M92.797,193.886l-35.841,20.693v136.291
				c0,1.728,0.861,2.727,2.114,2.727c0.514,0,1.093-0.168,1.706-0.522l32.021-18.487V193.886L92.797,193.886z"/>
		</g>
		<path style="fill:#455A64;" d="M66.092,225.792l17.637-10.183c1.32-0.762,2.389-0.144,2.389,1.38l0,4.835
			c0,1.524-1.07,3.377-2.39,4.139l-17.637,10.182c-1.32,0.762-2.389,0.144-2.389-1.38v-4.834
			C63.702,228.407,64.772,226.554,66.092,225.792z"/>
		<path style="fill:#455A64;" d="M66.092,246.489l17.637-10.183c1.32-0.762,2.389-0.144,2.389,1.38l0,4.835
			c0,1.524-1.07,3.377-2.39,4.138l-17.637,10.182c-1.32,0.762-2.389,0.144-2.389-1.38v-4.834
			C63.702,249.104,64.772,247.251,66.092,246.489z"/>
		<path style="fill:#455A64;" d="M66.092,267.187l17.637-10.183c1.32-0.762,2.389-0.144,2.389,1.379l0,4.835
			c0,1.524-1.07,3.377-2.39,4.139l-17.637,10.182c-1.32,0.762-2.389,0.144-2.389-1.38v-4.834
			C63.702,269.802,64.772,267.949,66.092,267.187z"/>
		<path style="fill:#27DEBF;" d="M81.636,219.211c1.339-0.775,2.424-0.148,2.424,1.399c0,1.548-1.086,3.429-2.427,4.203
			c-1.34,0.774-2.425,0.147-2.424-1.399C79.211,221.867,80.298,219.985,81.636,219.211z"/>
		<path style="fill:#27DEBF;" d="M79.876,240.93l2.977-1.719c0.657-0.379,1.195-0.069,1.195,0.69v3.438
			c0,0.416-0.295,0.926-0.655,1.134l-2.977,1.719c-0.657,0.379-1.195,0.069-1.195-0.69l0-3.438
			C79.221,241.648,79.516,241.138,79.876,240.93z"/>
		<path style="fill:#27DEBF;" d="M82.104,260.196l0.469,0.997c0,0,0.47-0.18,1.049-0.402c0.579-0.222,0.709,0.236,0.29,1.022
			l-0.759,1.425c0,0,0.08,0.577,0.179,1.29c0.099,0.712-0.241,1.238-0.759,1.174l-0.938-0.116c0,0-0.42,0.537-0.938,1.199
			c-0.518,0.662-0.858,0.529-0.759-0.297l0.179-1.496c0,0-0.34-0.246-0.759-0.548c-0.419-0.303-0.289-0.91,0.29-1.357l1.049-0.809
			c0,0,0.21-0.689,0.469-1.538C81.425,259.888,81.845,259.645,82.104,260.196z"/>
		<path style="fill:#27DEBF;" d="M108.828,201.118l111.483-64.364c2.639-1.524,4.779-0.288,4.779,2.759l0,30.375
			c0,3.048-2.14,6.753-4.779,8.277L108.829,242.53c-2.639,1.524-4.779,0.288-4.779-2.759l-0.001-30.376
			C104.049,206.347,106.188,202.641,108.828,201.118z"/>
		<g>
			<path style="fill:#27DEBF;" d="M105.245,260.13l69.338-40.032c0.66-0.381,1.195-0.072,1.195,0.69v2.417
				c0,0.762-0.535,1.688-1.195,2.069l-69.338,40.031c-0.66,0.381-1.195,0.072-1.195-0.69v-2.417
				C104.05,261.437,104.585,260.511,105.245,260.13z"/>
			<path style="fill:#27DEBF;" d="M105.245,270.482l69.338-40.032c0.66-0.381,1.195-0.072,1.195,0.69v2.418
				c0,0.762-0.535,1.688-1.195,2.069l-69.338,40.031c-0.66,0.381-1.195,0.072-1.195-0.69v-2.417
				C104.05,271.79,104.585,270.863,105.245,270.482z"/>
			<path style="fill:#27DEBF;" d="M105.245,280.835l69.338-40.032c0.66-0.381,1.195-0.072,1.195,0.69v2.418
				c0,0.762-0.535,1.688-1.195,2.069l-69.338,40.031c-0.66,0.381-1.195,0.072-1.195-0.69v-2.417
				C104.05,282.142,104.585,281.216,105.245,280.835z"/>
			<path style="fill:#27DEBF;" d="M105.245,291.187l69.338-40.032c0.66-0.381,1.195-0.072,1.195,0.69v2.417
				c0,0.762-0.535,1.688-1.195,2.069l-69.338,40.031c-0.66,0.381-1.195,0.072-1.195-0.69v-2.417
				C104.05,292.495,104.585,291.568,105.245,291.187z"/>
			<path style="fill:#27DEBF;" d="M105.245,301.54l69.338-40.032c0.66-0.381,1.195-0.072,1.195,0.69v2.417
				c0,0.762-0.535,1.688-1.195,2.069l-69.338,40.031c-0.66,0.381-1.195,0.072-1.195-0.69v-2.417
				C104.05,302.847,104.585,301.921,105.245,301.54z"/>
		</g>
		<g>
			<g>
				<polygon style="fill:#27DEBF;" points="225.089,190.936 184.742,214.231 184.742,260.819 225.09,237.525 				"/>
			</g>
			<polygon style="fill:#FAFAFA;" points="184.742,247.445 197.573,219.934 213.12,234.083 209.983,228.802 216.123,216.818 
				225.09,222.012 225.09,237.525 184.742,260.819 			"/>
			<path style="fill:#FAFAFA;" d="M211.643,205.893c1.745-1.01,3.16-0.193,3.16,1.824c0,2.017-1.416,4.47-3.163,5.479
				c-1.747,1.008-3.162,0.192-3.16-1.824C208.481,209.355,209.898,206.902,211.643,205.893z"/>
		</g>
	</g>
	<g id="Window_2_">
		<path id="XMLID_723_" style="fill:#27DEBF;" d="M311.463,133.921l-3.582-2.084l-182.78,105.528v152.833
			c0,1.216,0.426,2.07,1.115,2.47l0,0l0.005,0.003l0,0l3.581,2.083v0c0.692,0.4,1.647,0.342,2.702-0.267l175.14-101.117
			c2.11-1.218,3.82-4.181,3.82-6.617L311.463,133.921z"/>
		<path id="XMLID_722_" style="opacity:0.15;" d="M311.463,133.921l-3.582-2.084l-182.78,105.528v152.833
			c0,1.216,0.426,2.07,1.115,2.47l0,0l0.005,0.003l0,0l3.581,2.083v0c0.692,0.4,1.647,0.342,2.702-0.267l175.14-101.117
			c2.11-1.218,3.82-4.181,3.82-6.617L311.463,133.921z"/>
		<g id="XMLID_703_">
			<path style="fill:#27DEBF;" d="M128.683,392.283c0,2.436,1.71,3.424,3.82,2.206l175.14-101.117c2.11-1.218,3.82-4.181,3.82-6.617
				l-0.001-152.832L128.683,239.449V392.283z"/>
		</g>
		<g id="XMLID_701_" style="opacity:0.75;">
			<path style="fill:#FFFFFF;" d="M128.683,392.283c0,2.436,1.71,3.424,3.82,2.206l175.14-101.117c2.11-1.218,3.82-4.181,3.82-6.617
				l-0.001-152.832L128.683,239.449V392.283z"/>
		</g>
		<g id="XMLID_487_">
			<polygon id="XMLID_700_" style="fill:#27DEBF;" points="128.683,239.449 128.683,255.991 311.461,150.464 311.463,133.921 			"/>
			<path id="XMLID_689_" style="fill:#FAFAFA;" d="M243.369,179.722l0.001,3.561c0,0.728,0.516,1.026,1.146,0.662l56.196-32.445
				l0-6.208l-56.196,32.445C243.885,178.101,243.369,178.995,243.369,179.722z"/>
			<path id="XMLID_688_" style="fill:#455A64;" d="M306.734,141.816c0.633-0.365,1.146-0.069,1.146,0.662v3.561
				c0,0.731-0.513,1.62-1.146,1.985l-6.022,3.477l0-6.208L306.734,141.816z"/>
			<path id="XMLID_650_" style="fill:#FAFAFA;" d="M306.288,146.698l-0.672-0.209c0.069-0.285,0.108-0.578,0.108-0.865
				c0-0.687-0.223-1.21-0.612-1.435c-0.289-0.167-0.637-0.15-0.979,0.048c-0.753,0.434-1.342,1.661-1.342,2.793
				c0,0.687,0.223,1.21,0.612,1.435c0.132,0.076,0.276,0.114,0.426,0.114c0.179,0,0.367-0.054,0.553-0.161
				c0.452-0.261,0.843-0.811,1.085-1.452l0.673,0.21c0.025,0.008,0.05,0.011,0.074,0.011c0.106,0,0.205-0.068,0.238-0.175
				C306.493,146.878,306.42,146.739,306.288,146.698z M304.133,147.985c-0.186,0.108-0.348,0.124-0.48,0.047
				c-0.224-0.129-0.363-0.513-0.363-1.003c0-0.938,0.5-2.02,1.093-2.362c0.109-0.063,0.21-0.095,0.302-0.095
				c0.065,0,0.124,0.016,0.179,0.048c0.224,0.13,0.363,0.513,0.363,1.003C305.226,146.561,304.725,147.643,304.133,147.985z"/>
			<path id="XMLID_649_" style="fill:#263238;" d="M306.797,121.386c-0.693-0.425-1.663-0.378-2.737,0.242L128.921,222.745
				c-2.11,1.218-3.82,4.181-3.82,6.617v8.004l3.582,2.084l182.78-105.528v-8.004c0-1.211-0.423-2.062-1.107-2.463
				C309.713,123.079,307.418,121.767,306.797,121.386z"/>
			<path id="XMLID_645_" style="fill:#37474F;" d="M128.683,231.446c0-2.436,1.71-5.399,3.82-6.617l175.139-101.117
				c2.11-1.218,3.82-0.231,3.82,2.206v8.004L128.683,239.449V231.446z"/>
			<path id="XMLID_644_" style="fill:#455A64;" d="M310.394,123.477c-0.697-0.432-1.668-0.388-2.753,0.238L132.506,224.827
				c-1.059,0.609-2.012,1.659-2.7,2.85l-3.591-2.073c0.697-1.2,1.65-2.25,2.708-2.859l175.136-101.12
				c1.076-0.618,2.047-0.662,2.735-0.238c0.626,0.379,2.92,1.694,3.564,2.065C310.368,123.46,310.385,123.469,310.394,123.477z"/>
			<g id="XMLID_489_">
				<g id="XMLID_498_">
					<path id="XMLID_4_" style="fill:#27DEBF;" d="M289.96,138.049c-0.99,0.571-1.792,1.961-1.792,3.104
						c0,1.143,0.802,1.606,1.792,1.035c0.99-0.571,1.792-1.961,1.792-3.104C291.752,137.941,290.95,137.478,289.96,138.049z"/>
					<path style="fill:#27DEBF;" d="M296.231,134.437c-0.99,0.571-1.792,1.961-1.792,3.104c0,1.143,0.802,1.606,1.792,1.035
						c0.99-0.571,1.792-1.961,1.792-3.104C298.023,134.329,297.221,133.866,296.231,134.437z"/>
					<path id="XMLID_3_" style="fill:#27DEBF;" d="M302.503,130.825c-0.99,0.572-1.792,1.961-1.792,3.104
						c0,1.143,0.802,1.606,1.792,1.035c0.99-0.571,1.792-1.961,1.792-3.104S303.492,130.254,302.503,130.825z"/>
				</g>
			</g>
		</g>
		<g id="XMLID_444_">
			<path style="fill:#27DEBF;" d="M130.797,394.569c-1.048,0-1.673-0.854-1.673-2.286V256.246l34.96-20.184v139.684l-31.801,18.36
				C131.759,394.409,131.245,394.569,130.797,394.569L130.797,394.569z"/>
			<path style="fill:#F5F5F5;" d="M163.642,236.827v138.665l-31.58,18.233c-0.457,0.264-0.895,0.404-1.265,0.404
				c-1.112,0-1.232-1.29-1.232-1.845V256.501L163.642,236.827 M164.525,235.298l-35.842,20.693v136.291
				c0,1.728,0.861,2.728,2.114,2.728c0.514,0,1.093-0.168,1.706-0.522l32.021-18.487V235.298L164.525,235.298z"/>
		</g>
		<path style="fill:#455A64;" d="M137.819,267.204l17.637-10.183c1.32-0.762,2.389-0.144,2.389,1.38l0,4.835
			c0,1.524-1.07,3.377-2.389,4.138l-17.637,10.182c-1.32,0.762-2.39,0.144-2.39-1.38v-4.834
			C135.43,269.819,136.5,267.966,137.819,267.204z"/>
		<path style="fill:#455A64;" d="M137.819,287.901l17.637-10.183c1.32-0.762,2.389-0.144,2.389,1.38l0,4.835
			c0,1.524-1.07,3.377-2.389,4.139l-17.637,10.182c-1.32,0.762-2.39,0.144-2.39-1.38v-4.834
			C135.43,290.516,136.5,288.663,137.819,287.901z"/>
		<path style="fill:#455A64;" d="M137.819,308.599l17.637-10.183c1.32-0.762,2.389-0.144,2.389,1.38l0,4.835
			c0,1.524-1.07,3.377-2.389,4.138l-17.637,10.182c-1.32,0.762-2.39,0.144-2.39-1.38v-4.834
			C135.43,311.214,136.5,309.361,137.819,308.599z"/>
		<path style="fill:#27DEBF;" d="M153.364,260.623c1.339-0.775,2.424-0.148,2.424,1.399c0,1.547-1.087,3.429-2.427,4.203
			c-1.34,0.774-2.425,0.147-2.424-1.399C150.939,263.279,152.025,261.397,153.364,260.623z"/>
		<path style="fill:#27DEBF;" d="M151.604,282.342l2.977-1.719c0.657-0.379,1.195-0.069,1.195,0.69v3.438
			c0,0.416-0.295,0.926-0.655,1.134l-2.977,1.719c-0.657,0.379-1.195,0.069-1.195-0.69l0-3.438
			C150.949,283.06,151.244,282.55,151.604,282.342z"/>
		<path style="fill:#FAFAFA;" d="M153.832,301.608l0.469,0.996c0,0,0.47-0.18,1.049-0.402c0.579-0.222,0.709,0.236,0.29,1.022
			l-0.759,1.425c0,0,0.08,0.577,0.179,1.29c0.099,0.712-0.241,1.238-0.759,1.174l-0.938-0.116c0,0-0.42,0.537-0.938,1.199
			c-0.518,0.662-0.858,0.529-0.759-0.297l0.179-1.497c0,0-0.34-0.245-0.759-0.548c-0.419-0.303-0.289-0.91,0.29-1.357l1.049-0.809
			c0,0,0.21-0.689,0.469-1.538C153.153,301.3,153.573,301.057,153.832,301.608z"/>
		<path style="fill:#27DEBF;" d="M180.555,242.53l111.483-64.364c2.639-1.524,4.779-0.288,4.779,2.759l0,30.375
			c0,3.048-2.14,6.753-4.779,8.277l-111.481,64.365c-2.639,1.524-4.779,0.289-4.779-2.759l-0.001-30.377
			C175.777,247.759,177.916,244.054,180.555,242.53z"/>
		<g>
			<path style="fill:#27DEBF;" d="M176.973,301.542l69.338-40.032c0.66-0.381,1.195-0.072,1.195,0.69v2.418
				c0,0.762-0.535,1.688-1.195,2.069l-69.338,40.031c-0.66,0.381-1.195,0.072-1.195-0.69v-2.417
				C175.778,302.849,176.313,301.923,176.973,301.542z"/>
			<path style="fill:#27DEBF;" d="M176.973,311.894l69.338-40.032c0.66-0.381,1.195-0.072,1.195,0.69v2.417
				c0,0.762-0.535,1.688-1.195,2.069l-69.338,40.031c-0.66,0.381-1.195,0.072-1.195-0.69v-2.417
				C175.778,313.202,176.313,312.275,176.973,311.894z"/>
			<path style="fill:#27DEBF;" d="M176.973,322.247l69.338-40.032c0.66-0.381,1.195-0.072,1.195,0.69v2.418
				c0,0.762-0.535,1.688-1.195,2.069l-69.338,40.031c-0.66,0.381-1.195,0.072-1.195-0.69v-2.417
				C175.778,323.554,176.313,322.628,176.973,322.247z"/>
			<path style="fill:#27DEBF;" d="M176.973,332.599l69.338-40.032c0.66-0.381,1.195-0.072,1.195,0.69v2.417
				c0,0.762-0.535,1.688-1.195,2.069l-69.338,40.031c-0.66,0.381-1.195,0.072-1.195-0.69v-2.417
				C175.778,333.907,176.313,332.98,176.973,332.599z"/>
			<path style="fill:#27DEBF;" d="M176.973,342.952l69.338-40.032c0.66-0.381,1.195-0.072,1.195,0.69v2.417
				c0,0.762-0.535,1.688-1.195,2.069l-69.338,40.031c-0.66,0.381-1.195,0.072-1.195-0.69v-2.417
				C175.778,344.259,176.313,343.333,176.973,342.952z"/>
		</g>
		<g>
			<g>
				<polygon style="fill:#27DEBF;" points="296.817,232.348 256.47,255.643 256.47,302.231 296.818,278.937 				"/>
			</g>
			<polygon style="fill:#FAFAFA;" points="256.47,288.857 269.3,261.347 284.847,275.495 281.71,270.215 287.851,258.23 
				296.818,263.424 296.818,278.937 256.47,302.231 			"/>
			<path style="fill:#FAFAFA;" d="M283.37,247.305c1.745-1.01,3.16-0.193,3.16,1.824c0,2.017-1.416,4.47-3.163,5.479
				c-1.747,1.009-3.162,0.192-3.16-1.824C280.209,250.767,281.625,248.315,283.37,247.305z"/>
		</g>
	</g>
	<g id="Window">
		<path id="XMLID_4093_" style="fill:#27DEBF;" d="M378.678,172.746l-3.582-2.084L192.316,276.19v152.833
			c0,1.216,0.426,2.07,1.115,2.47l0,0l0.005,0.003l0,0l3.581,2.083v0c0.691,0.4,1.647,0.342,2.702-0.267l175.14-101.117
			c2.11-1.218,3.82-4.181,3.82-6.617L378.678,172.746z"/>
		<path id="XMLID_431_" style="opacity:0.15;" d="M378.678,172.746l-3.582-2.084L192.316,276.19v152.833
			c0,1.216,0.426,2.07,1.115,2.47l0,0l0.005,0.003l0,0l3.581,2.083v0c0.691,0.4,1.647,0.342,2.702-0.267l175.14-101.117
			c2.11-1.218,3.82-4.181,3.82-6.617L378.678,172.746z"/>
		<g id="XMLID_4092_">
			<path style="fill:#27DEBF;" d="M195.898,431.108c0,2.436,1.711,3.424,3.821,2.206l175.14-101.117
				c2.11-1.218,3.82-4.181,3.82-6.617l-0.001-152.832L195.898,278.275V431.108z"/>
		</g>
		<g id="XMLID_425_" style="opacity:0.75;">
			<path style="fill:#FFFFFF;" d="M195.898,431.108c0,2.436,1.711,3.424,3.821,2.206l175.14-101.117
				c2.11-1.218,3.82-4.181,3.82-6.617l-0.001-152.832L195.898,278.275V431.108z"/>
		</g>
		<g id="XMLID_1082_">
			<polygon id="XMLID_4078_" style="fill:#27DEBF;" points="195.898,278.275 195.898,294.816 378.676,189.289 378.677,172.746 			
				"/>
			<path id="XMLID_4077_" style="fill:#FAFAFA;" d="M310.584,218.547l0,3.561c0,0.728,0.516,1.026,1.146,0.662l56.196-32.445
				l0-6.208l-56.196,32.445C311.1,216.926,310.584,217.82,310.584,218.547z"/>
			<path id="XMLID_4076_" style="fill:#455A64;" d="M373.949,180.641c0.633-0.365,1.146-0.069,1.146,0.662v3.561
				c0,0.731-0.513,1.62-1.146,1.985l-6.022,3.477l0-6.208L373.949,180.641z"/>
			<path id="XMLID_2174_" style="fill:#FAFAFA;" d="M373.503,185.523l-0.672-0.209c0.069-0.285,0.108-0.578,0.108-0.866
				c0-0.687-0.223-1.21-0.612-1.435c-0.289-0.167-0.637-0.15-0.979,0.048c-0.752,0.434-1.342,1.661-1.342,2.793
				c0,0.687,0.223,1.21,0.612,1.435c0.132,0.076,0.276,0.114,0.426,0.114c0.179,0,0.367-0.054,0.553-0.162
				c0.452-0.261,0.843-0.811,1.085-1.452l0.673,0.21c0.025,0.008,0.05,0.011,0.074,0.011c0.106,0,0.205-0.068,0.238-0.175
				C373.708,185.704,373.635,185.564,373.503,185.523z M371.348,186.81c-0.186,0.108-0.348,0.124-0.48,0.047
				c-0.224-0.129-0.363-0.513-0.363-1.003c0-0.938,0.5-2.019,1.093-2.362c0.109-0.063,0.21-0.095,0.302-0.095
				c0.065,0,0.124,0.016,0.179,0.048c0.224,0.13,0.363,0.513,0.363,1.003C372.441,185.386,371.94,186.468,371.348,186.81z"/>
			<path id="XMLID_2148_" style="fill:#263238;" d="M374.012,160.211c-0.693-0.425-1.663-0.378-2.737,0.242L196.136,261.569
				c-2.11,1.218-3.821,4.181-3.821,6.617v8.004l3.582,2.084l182.78-105.528v-8.003c0-1.211-0.423-2.062-1.107-2.463
				C376.928,161.904,374.633,160.592,374.012,160.211z"/>
			<path id="XMLID_2145_" style="fill:#37474F;" d="M195.898,270.271c0-2.436,1.711-5.399,3.821-6.617l175.139-101.117
				c2.11-1.218,3.82-0.231,3.82,2.206v8.003L195.898,278.275V270.271z"/>
			<path id="XMLID_2143_" style="fill:#455A64;" d="M377.609,162.302c-0.697-0.432-1.668-0.388-2.753,0.238L199.721,263.652
				c-1.059,0.609-2.012,1.659-2.7,2.85l-3.591-2.073c0.697-1.2,1.65-2.25,2.709-2.859l175.136-101.12
				c1.076-0.618,2.047-0.662,2.735-0.238c0.626,0.379,2.92,1.694,3.564,2.065C377.583,162.285,377.6,162.294,377.609,162.302z"/>
			<g id="XMLID_1086_">
				<g id="XMLID_2103_">
					<path id="XMLID_2_" style="fill:#27DEBF;" d="M357.175,176.874c-0.99,0.571-1.792,1.961-1.792,3.104s0.802,1.606,1.792,1.035
						c0.99-0.571,1.792-1.961,1.792-3.104C358.967,176.766,358.165,176.303,357.175,176.874z"/>
					<path style="fill:#27DEBF;" d="M363.446,173.262c-0.99,0.571-1.792,1.961-1.792,3.104c0,1.143,0.802,1.606,1.792,1.035
						c0.99-0.571,1.792-1.961,1.792-3.104C365.238,173.154,364.436,172.691,363.446,173.262z"/>
					<path id="XMLID_1_" style="fill:#27DEBF;" d="M369.718,169.65c-0.99,0.571-1.792,1.961-1.792,3.104
						c0,1.143,0.802,1.606,1.792,1.035c0.99-0.571,1.792-1.961,1.792-3.104S370.707,169.079,369.718,169.65z"/>
				</g>
			</g>
		</g>
		<g id="XMLID_1021_">
			<path style="fill:#27DEBF;" d="M198.012,433.394c-1.048,0-1.673-0.855-1.673-2.287V295.071l34.959-20.184v139.683l-31.801,18.361
				C198.974,433.234,198.46,433.394,198.012,433.394L198.012,433.394z"/>
			<path style="fill:#F5F5F5;" d="M230.857,275.652v138.665l-31.58,18.233c-0.457,0.264-0.895,0.404-1.265,0.404
				c-1.112,0-1.232-1.29-1.232-1.845V295.326L230.857,275.652 M231.74,274.123l-35.841,20.693v136.291
				c0,1.728,0.861,2.728,2.114,2.728c0.514,0,1.093-0.168,1.706-0.522l32.021-18.487V274.123L231.74,274.123z"/>
		</g>
		<path style="fill:#455A64;" d="M205.034,306.029l17.637-10.183c1.32-0.762,2.389-0.144,2.389,1.38v4.835
			c0,1.524-1.07,3.377-2.389,4.138l-17.637,10.182c-1.32,0.762-2.389,0.144-2.389-1.38v-4.834
			C202.645,308.644,203.715,306.791,205.034,306.029z"/>
		<path style="fill:#455A64;" d="M205.034,326.726l17.637-10.182c1.32-0.762,2.389-0.144,2.389,1.379v4.835
			c0,1.524-1.07,3.377-2.389,4.138l-17.637,10.182c-1.32,0.762-2.389,0.144-2.389-1.38v-4.834
			C202.645,329.341,203.715,327.488,205.034,326.726z"/>
		<path style="fill:#455A64;" d="M205.034,347.424l17.637-10.182c1.32-0.762,2.389-0.144,2.389,1.379v4.835
			c0,1.524-1.07,3.377-2.389,4.139l-17.637,10.182c-1.32,0.762-2.389,0.144-2.389-1.38v-4.834
			C202.645,350.039,203.715,348.186,205.034,347.424z"/>
		<path style="fill:#27DEBF;" d="M220.579,299.448c1.339-0.775,2.424-0.148,2.424,1.399c0,1.548-1.086,3.429-2.427,4.203
			c-1.34,0.774-2.425,0.147-2.424-1.399C218.154,302.104,219.24,300.223,220.579,299.448z"/>
		<path style="fill:#27DEBF;" d="M218.819,321.167l2.977-1.719c0.657-0.379,1.195-0.069,1.195,0.69v3.438
			c0,0.416-0.294,0.926-0.654,1.134l-2.977,1.719c-0.657,0.379-1.195,0.069-1.195-0.69l0-3.438
			C218.164,321.885,218.459,321.375,218.819,321.167z"/>
		<path style="fill:#27DEBF;" d="M221.047,340.433l0.469,0.997c0,0,0.47-0.18,1.049-0.402c0.579-0.222,0.709,0.236,0.29,1.022
			l-0.759,1.425c0,0,0.08,0.577,0.179,1.289c0.099,0.712-0.241,1.238-0.759,1.174l-0.938-0.116c0,0-0.42,0.537-0.938,1.199
			c-0.518,0.662-0.858,0.529-0.759-0.297l0.179-1.496c0,0-0.34-0.245-0.759-0.548c-0.419-0.303-0.29-0.91,0.29-1.357l1.049-0.809
			c0,0,0.21-0.689,0.469-1.538C220.368,340.125,220.788,339.883,221.047,340.433z"/>
		<path style="fill:#27DEBF;" d="M247.77,281.355l111.483-64.364c2.639-1.524,4.779-0.288,4.779,2.759l0,30.375
			c0,3.048-2.14,6.753-4.779,8.277l-111.481,64.365c-2.639,1.524-4.779,0.289-4.779-2.759l-0.001-30.376
			C242.992,286.584,245.131,282.879,247.77,281.355z"/>
		<g>
			<path style="fill:#27DEBF;" d="M244.188,340.367l69.338-40.032c0.66-0.381,1.195-0.072,1.195,0.69v2.417
				c0,0.762-0.535,1.688-1.195,2.069l-69.338,40.031c-0.66,0.381-1.195,0.072-1.195-0.69v-2.417
				C242.993,341.674,243.528,340.748,244.188,340.367z"/>
			<path style="fill:#27DEBF;" d="M244.188,350.719l69.338-40.032c0.66-0.381,1.195-0.072,1.195,0.69v2.417
				c0,0.762-0.535,1.688-1.195,2.069l-69.338,40.031c-0.66,0.381-1.195,0.072-1.195-0.69v-2.417
				C242.993,352.027,243.528,351.1,244.188,350.719z"/>
			<path style="fill:#27DEBF;" d="M244.188,361.072l69.338-40.032c0.66-0.381,1.195-0.072,1.195,0.69v2.418
				c0,0.762-0.535,1.688-1.195,2.069l-69.338,40.031c-0.66,0.381-1.195,0.072-1.195-0.69v-2.417
				C242.993,362.379,243.528,361.453,244.188,361.072z"/>
			<path style="fill:#27DEBF;" d="M244.188,371.424l69.338-40.032c0.66-0.381,1.195-0.072,1.195,0.69v2.418
				c0,0.762-0.535,1.688-1.195,2.069L244.188,376.6c-0.66,0.381-1.195,0.072-1.195-0.69v-2.417
				C242.993,372.732,243.528,371.805,244.188,371.424z"/>
			<path style="fill:#27DEBF;" d="M244.188,381.777l69.338-40.032c0.66-0.381,1.195-0.072,1.195,0.69v2.418
				c0,0.762-0.535,1.688-1.195,2.069l-69.338,40.031c-0.66,0.381-1.195,0.072-1.195-0.69v-2.417
				C242.993,383.084,243.528,382.158,244.188,381.777z"/>
		</g>
		<g>
			<g>
				<polygon style="fill:#27DEBF;" points="364.032,271.173 323.685,294.468 323.685,341.056 364.033,317.762 				"/>
			</g>
			<polygon style="fill:#FAFAFA;" points="323.685,327.682 336.515,300.172 352.062,314.32 348.925,309.039 355.066,297.055 
				364.033,302.249 364.033,317.762 323.685,341.056 			"/>
			<path style="fill:#FAFAFA;" d="M350.585,286.13c1.745-1.01,3.16-0.193,3.16,1.824c0,2.017-1.416,4.47-3.163,5.479
				c-1.747,1.009-3.162,0.192-3.16-1.824C347.424,289.592,348.84,287.14,350.585,286.13z"/>
		</g>
	</g>
</g>
<g id="Tabs">
	<g id="_x33_rd_Tab_1_">
		<g id="XMLID_59_">
			<g id="XMLID_60_">
				<path style="opacity:0.8;fill:#455A64;" d="M184.146,34.547c-0.354-0.206-3.293-1.869-3.617-2.084
					c-0.356-0.236-0.865-0.219-1.429,0.107L81.221,89.097c-1.078,0.622-1.952,2.136-1.952,3.381l0.002,51.946
					c0,0.613,0.212,1.046,0.555,1.254c0.355,0.215,3.322,1.911,3.67,2.117c0.354,0.209,0.845,0.182,1.388-0.132l46.599-26.913
					l2.83,10.208c0.099,0.353,0.287,0.607,0.541,0.784c0.022,0.022,0.055,0.033,0.088,0.055c0.75,0.419,1.854,0.088,2.053-0.938
					l2.889-14.961l42.877-24.763c1.078-0.622,1.951-2.136,1.951-3.381V35.808C184.713,35.189,184.496,34.752,184.146,34.547z"/>
				<g>
					<path style="fill:#FAFAFA;" d="M96.941,117.668c0,0.146-0.035,0.291-0.102,0.437c-0.069,0.146-0.151,0.245-0.246,0.301
						l-1.687,0.973c-0.095,0.055-0.177,0.049-0.246-0.016c-0.068-0.067-0.102-0.172-0.102-0.319v-4.223l-2.976-6.71
						c-0.035-0.073-0.051-0.15-0.051-0.23c0-0.119,0.028-0.237,0.083-0.356c0.056-0.117,0.123-0.199,0.199-0.243l1.765-1.02
						c0.171-0.099,0.3-0.108,0.386-0.025c0.086,0.082,0.137,0.152,0.155,0.208l1.623,3.94l1.635-5.822
						c0.018-0.076,0.069-0.205,0.155-0.386c0.086-0.183,0.215-0.323,0.386-0.423l1.764-1.017c0.078-0.045,0.144-0.041,0.2,0.013
						c0.056,0.054,0.084,0.14,0.084,0.259c0,0.08-0.017,0.175-0.052,0.288l-2.976,10.146V117.668z"/>
					<path style="fill:#FAFAFA;" d="M106.447,106.807c0.009,0.193,0.014,0.444,0.014,0.754c0,0.31-0.005,0.568-0.014,0.772
						c-0.016,0.645-0.111,1.293-0.282,1.949c-0.172,0.655-0.407,1.276-0.708,1.867c-0.302,0.59-0.664,1.126-1.09,1.61
						c-0.425,0.483-0.899,0.875-1.423,1.178c-0.524,0.303-0.998,0.458-1.423,0.465c-0.426,0.009-0.789-0.11-1.09-0.352
						c-0.301-0.243-0.537-0.592-0.708-1.049c-0.172-0.457-0.266-0.997-0.283-1.622c-0.009-0.193-0.013-0.445-0.013-0.756
						s0.004-0.567,0.013-0.771c0.009-0.639,0.098-1.286,0.271-1.941c0.173-0.655,0.411-1.278,0.716-1.871
						c0.304-0.592,0.669-1.134,1.095-1.623c0.425-0.49,0.899-0.886,1.423-1.189c0.524-0.303,0.998-0.454,1.423-0.455
						c0.426-0.001,0.791,0.12,1.096,0.359c0.304,0.241,0.54,0.591,0.708,1.05C106.338,105.64,106.43,106.182,106.447,106.807z
						 M101.758,110.94c0.026,0.488,0.144,0.814,0.354,0.975c0.21,0.164,0.487,0.147,0.831-0.053c0.343-0.197,0.62-0.5,0.831-0.906
						c0.21-0.405,0.329-0.867,0.354-1.384c0.017-0.209,0.027-0.438,0.027-0.69c0-0.25-0.01-0.47-0.027-0.66
						c-0.025-0.487-0.143-0.813-0.354-0.975c-0.211-0.162-0.488-0.143-0.831,0.054c-0.344,0.199-0.621,0.501-0.831,0.906
						c-0.21,0.405-0.329,0.867-0.354,1.384c-0.017,0.209-0.026,0.439-0.026,0.69C101.732,110.533,101.741,110.751,101.758,110.94z"
						/>
					<path style="fill:#FAFAFA;" d="M107.593,102.276c0-0.144,0.035-0.29,0.104-0.435c0.068-0.145,0.151-0.246,0.245-0.3
						l1.623-0.938c0.094-0.054,0.176-0.047,0.245,0.017c0.069,0.067,0.102,0.173,0.102,0.317v5.018c0,0.569,0.082,0.979,0.246,1.227
						c0.163,0.251,0.433,0.266,0.812,0.047c0.377-0.218,0.646-0.543,0.805-0.981c0.158-0.434,0.238-0.938,0.238-1.505v-5.018
						c0-0.144,0.035-0.291,0.102-0.435c0.069-0.147,0.15-0.246,0.246-0.301l1.622-0.937c0.095-0.055,0.177-0.05,0.246,0.017
						c0.068,0.066,0.102,0.172,0.102,0.317v9.241c0,0.147-0.035,0.292-0.102,0.438c-0.069,0.144-0.151,0.245-0.246,0.3l-1.494,0.862
						c-0.095,0.055-0.176,0.05-0.245-0.017c-0.069-0.066-0.103-0.173-0.103-0.317v-0.457c-0.069,0.185-0.152,0.376-0.251,0.572
						c-0.099,0.195-0.221,0.391-0.367,0.587c-0.146,0.198-0.317,0.388-0.51,0.573c-0.193,0.183-0.423,0.352-0.689,0.507
						c-0.833,0.481-1.496,0.5-1.99,0.058c-0.495-0.443-0.742-1.444-0.742-3.003V102.276z"/>
					<path style="fill:#FAFAFA;" d="M117.911,93.761c0,0.147-0.035,0.291-0.102,0.435c-0.069,0.147-0.151,0.247-0.246,0.302
						l-1.429,0.826c-0.095,0.054-0.177,0.049-0.246-0.018c-0.068-0.066-0.102-0.171-0.102-0.317v-2.202
						c0-0.146,0.035-0.291,0.102-0.435c0.069-0.146,0.151-0.246,0.246-0.302l1.429-0.825c0.095-0.055,0.177-0.049,0.246,0.018
						c0.068,0.066,0.102,0.17,0.102,0.317V93.761z"/>
					<path style="fill:#FAFAFA;" d="M124.3,92.096c0.094-0.055,0.176-0.049,0.245,0.017c0.069,0.066,0.104,0.171,0.104,0.316v2.005
						c0,0.144-0.035,0.291-0.104,0.437c-0.069,0.146-0.151,0.245-0.245,0.3l-1.173,0.677c-0.789,0.456-1.186,1.292-1.186,2.509
						v4.878c0,0.146-0.033,0.291-0.102,0.437c-0.069,0.146-0.15,0.246-0.245,0.3l-1.623,0.938c-0.094,0.054-0.176,0.049-0.245-0.017
						c-0.069-0.067-0.103-0.172-0.103-0.318v-9.242c0-0.144,0.035-0.291,0.103-0.435c0.069-0.146,0.151-0.246,0.245-0.3l1.495-0.863
						c0.094-0.055,0.176-0.049,0.245,0.017c0.069,0.066,0.102,0.172,0.102,0.317v0.457c0.197-0.405,0.435-0.781,0.715-1.127
						c0.279-0.346,0.612-0.631,0.999-0.854L124.3,92.096z"/>
					<path style="fill:#FAFAFA;" d="M127.481,96.546c0,0.304,0.037,0.534,0.11,0.69c0.073,0.155,0.166,0.261,0.277,0.317
						c0.112,0.054,0.236,0.065,0.374,0.031c0.137-0.033,0.269-0.087,0.399-0.161c0.258-0.149,0.462-0.307,0.612-0.472
						c0.15-0.167,0.277-0.352,0.379-0.557c0.095-0.174,0.164-0.29,0.207-0.348c0.043-0.056,0.115-0.116,0.218-0.175l1.675-0.968
						c0.19-0.109,0.283-0.017,0.283,0.274c0,0.157-0.064,0.437-0.193,0.835c-0.128,0.398-0.329,0.844-0.599,1.338
						c-0.27,0.492-0.62,0.989-1.049,1.487c-0.431,0.5-0.941,0.92-1.534,1.263c-0.558,0.321-1.054,0.485-1.488,0.491
						c-0.432,0.007-0.798-0.137-1.094-0.429c-0.296-0.291-0.52-0.724-0.669-1.3c-0.151-0.573-0.226-1.276-0.226-2.11
						c0-0.765,0.076-1.521,0.226-2.261c0.15-0.742,0.373-1.436,0.669-2.083c0.296-0.647,0.662-1.232,1.094-1.751
						c0.434-0.522,0.93-0.944,1.488-1.265c0.627-0.362,1.162-0.51,1.604-0.442c0.442,0.069,0.803,0.28,1.082,0.636
						c0.279,0.353,0.481,0.816,0.605,1.386c0.125,0.569,0.188,1.171,0.188,1.806v0.554c0,0.147-0.035,0.291-0.104,0.436
						c-0.069,0.146-0.15,0.247-0.245,0.302L127.481,96.546z M128.641,92.069c-0.36,0.207-0.636,0.531-0.825,0.971
						c-0.189,0.44-0.301,0.874-0.335,1.303l2.318-1.339c-0.035-0.389-0.145-0.694-0.334-0.916
						C129.277,91.867,129.002,91.86,128.641,92.069z"/>
					<path style="fill:#FAFAFA;" d="M140.697,82.629c0.095-0.055,0.176-0.049,0.245,0.017c0.069,0.066,0.104,0.171,0.104,0.316
						v2.005c0,0.144-0.035,0.291-0.104,0.437s-0.15,0.245-0.245,0.3l-1.172,0.677c-0.79,0.456-1.186,1.292-1.186,2.509v4.878
						c0,0.146-0.033,0.291-0.104,0.437c-0.069,0.146-0.15,0.246-0.243,0.3l-1.623,0.938c-0.095,0.054-0.177,0.049-0.245-0.017
						c-0.069-0.067-0.104-0.173-0.104-0.318v-9.242c0-0.144,0.035-0.291,0.104-0.435c0.068-0.146,0.15-0.246,0.245-0.3l1.494-0.863
						c0.095-0.055,0.176-0.049,0.245,0.017c0.069,0.066,0.102,0.172,0.102,0.317v0.457c0.198-0.405,0.437-0.781,0.716-1.127
						s0.612-0.631,0.998-0.854L140.697,82.629z"/>
					<path style="fill:#FAFAFA;" d="M143.878,87.079c0,0.304,0.036,0.535,0.11,0.69c0.072,0.156,0.165,0.261,0.276,0.317
						c0.112,0.054,0.236,0.065,0.375,0.032c0.137-0.033,0.269-0.087,0.398-0.162c0.258-0.149,0.462-0.306,0.612-0.472
						c0.151-0.166,0.278-0.351,0.38-0.556c0.094-0.175,0.163-0.29,0.206-0.348c0.043-0.057,0.116-0.116,0.219-0.176l1.675-0.967
						c0.189-0.109,0.283-0.018,0.283,0.273c0,0.159-0.065,0.438-0.193,0.836c-0.129,0.397-0.329,0.843-0.599,1.336
						c-0.27,0.493-0.62,0.989-1.05,1.487c-0.43,0.5-0.941,0.92-1.534,1.263c-0.558,0.322-1.053,0.485-1.487,0.493
						c-0.433,0.005-0.799-0.137-1.095-0.43c-0.296-0.291-0.518-0.724-0.669-1.299c-0.15-0.574-0.226-1.277-0.226-2.11
						c0-0.766,0.077-1.521,0.226-2.262c0.151-0.742,0.373-1.436,0.669-2.082c0.296-0.647,0.662-1.232,1.095-1.753
						c0.434-0.522,0.929-0.943,1.487-1.265c0.627-0.362,1.163-0.509,1.604-0.441c0.443,0.069,0.804,0.279,1.083,0.635
						c0.279,0.354,0.481,0.817,0.605,1.386c0.125,0.569,0.186,1.171,0.186,1.806v0.555c0,0.146-0.033,0.29-0.102,0.435
						c-0.069,0.147-0.151,0.247-0.245,0.301L143.878,87.079z M145.037,82.602c-0.36,0.208-0.635,0.532-0.823,0.972
						s-0.301,0.873-0.335,1.303l2.318-1.339c-0.035-0.389-0.146-0.695-0.334-0.917C145.673,82.4,145.398,82.393,145.037,82.602z"/>
					<path style="fill:#FAFAFA;" d="M149.25,85.068c0-0.873,0.217-1.718,0.65-2.537c0.434-0.819,1.14-1.643,2.119-2.472l1.508-1.268
						c0-0.317-0.056-0.545-0.167-0.687c-0.112-0.14-0.305-0.13-0.58,0.027c-0.198,0.114-0.35,0.246-0.457,0.392
						c-0.109,0.149-0.188,0.272-0.239,0.367c-0.078,0.151-0.15,0.26-0.219,0.326c-0.069,0.067-0.15,0.126-0.245,0.181l-1.636,0.944
						c-0.085,0.05-0.156,0.051-0.212,0.003c-0.056-0.046-0.08-0.139-0.071-0.276c0.017-0.314,0.104-0.682,0.258-1.1
						c0.155-0.42,0.368-0.847,0.637-1.28c0.272-0.433,0.593-0.851,0.967-1.252c0.374-0.401,0.779-0.727,1.218-0.981
						c0.524-0.302,0.979-0.466,1.364-0.489c0.387-0.026,0.707,0.064,0.959,0.267c0.254,0.205,0.441,0.513,0.562,0.927
						c0.121,0.412,0.18,0.91,0.18,1.492v6.009c0,0.145-0.034,0.291-0.102,0.436c-0.069,0.146-0.151,0.246-0.246,0.301l-1.622,0.937
						c-0.095,0.055-0.177,0.05-0.246-0.017c-0.068-0.066-0.102-0.173-0.102-0.317v-0.556c-0.207,0.516-0.462,0.979-0.766,1.385
						c-0.305,0.406-0.707,0.756-1.205,1.042c-0.369,0.213-0.697,0.323-0.985,0.331c-0.288,0.007-0.528-0.071-0.721-0.238
						c-0.194-0.166-0.342-0.41-0.445-0.735C149.3,85.905,149.25,85.519,149.25,85.068z M152.187,83.829
						c0.189-0.109,0.365-0.261,0.528-0.454c0.163-0.193,0.305-0.411,0.425-0.652c0.121-0.241,0.214-0.498,0.285-0.77
						c0.068-0.27,0.102-0.537,0.102-0.802l-1.186,0.961c-0.232,0.2-0.418,0.42-0.561,0.662c-0.141,0.239-0.212,0.485-0.212,0.737
						c0,0.25,0.054,0.395,0.162,0.432C151.836,83.982,151.988,83.943,152.187,83.829z"/>
					<path style="fill:#FAFAFA;" d="M159.902,71.343c0.248-0.143,0.468-0.232,0.656-0.261c0.189-0.029,0.352-0.025,0.489,0.015
						c0.137,0.04,0.253,0.102,0.348,0.187c0.095,0.084,0.171,0.168,0.232,0.252v-4.225c0-0.145,0.034-0.29,0.102-0.436
						c0.069-0.144,0.151-0.245,0.246-0.3l1.622-0.937c0.095-0.055,0.177-0.049,0.246,0.016c0.068,0.067,0.102,0.173,0.102,0.317
						v13.011c0,0.144-0.034,0.291-0.102,0.435c-0.069,0.147-0.151,0.246-0.246,0.301l-1.557,0.9
						c-0.096,0.054-0.177,0.049-0.246-0.017c-0.068-0.067-0.102-0.172-0.102-0.318v-0.456c-0.078,0.19-0.162,0.382-0.251,0.571
						c-0.09,0.191-0.201,0.382-0.335,0.57c-0.134,0.191-0.296,0.376-0.489,0.56c-0.193,0.184-0.432,0.359-0.715,0.522
						c-0.387,0.223-0.752,0.344-1.095,0.365c-0.344,0.019-0.645-0.086-0.902-0.313c-0.258-0.229-0.467-0.58-0.625-1.058
						c-0.158-0.476-0.247-1.099-0.264-1.87c-0.009-0.193-0.012-0.458-0.012-0.797c0-0.336,0.003-0.606,0.012-0.809
						c0.017-0.79,0.106-1.514,0.264-2.176c0.158-0.66,0.367-1.252,0.625-1.778c0.258-0.526,0.558-0.981,0.902-1.364
						C159.15,71.87,159.515,71.566,159.902,71.343z M159.322,76.476c-0.026,0.386-0.026,0.757,0,1.11
						c0.025,0.449,0.124,0.795,0.295,1.039c0.172,0.246,0.459,0.251,0.863,0.017c0.189-0.108,0.352-0.249,0.489-0.42
						c0.138-0.173,0.251-0.36,0.342-0.565c0.09-0.203,0.161-0.414,0.213-0.629c0.051-0.213,0.084-0.425,0.102-0.634
						c0.017-0.207,0.026-0.444,0.026-0.709c0-0.263-0.009-0.489-0.026-0.679c-0.018-0.188-0.052-0.36-0.102-0.515
						c-0.053-0.155-0.124-0.282-0.213-0.384c-0.09-0.099-0.204-0.155-0.342-0.168c-0.137-0.014-0.301,0.035-0.489,0.142
						c-0.404,0.234-0.691,0.571-0.863,1.014C159.446,75.539,159.347,75.999,159.322,76.476z"/>
					<path style="fill:#FAFAFA;" d="M168.932,79.933c-0.026,0.12-0.069,0.251-0.129,0.391c-0.059,0.14-0.141,0.239-0.245,0.3
						l-1.688,0.974c-0.085,0.05-0.158,0.045-0.218-0.013c-0.061-0.058-0.09-0.153-0.09-0.285c0-0.054,0.004-0.101,0.013-0.147
						l0.979-4.115l-2.602-7.799c-0.009-0.034-0.013-0.079-0.013-0.131c0-0.132,0.029-0.262,0.09-0.39
						c0.059-0.125,0.133-0.213,0.218-0.263l1.688-0.974c0.103-0.06,0.185-0.054,0.245,0.017c0.06,0.07,0.104,0.151,0.129,0.241
						l1.429,4.33l1.417-5.973c0.026-0.121,0.069-0.252,0.128-0.392c0.061-0.14,0.142-0.239,0.246-0.3l1.7-0.981
						c0.086-0.05,0.158-0.045,0.22,0.011c0.059,0.058,0.089,0.154,0.089,0.286c0,0.053-0.004,0.101-0.012,0.146L168.932,79.933z"/>
					<path style="fill:#FAFAFA;" d="M175.862,67.839c0,0.146-0.035,0.292-0.103,0.438c-0.069,0.145-0.151,0.246-0.245,0.3
						l-1.623,0.938c-0.095,0.054-0.176,0.047-0.245-0.017c-0.069-0.067-0.102-0.173-0.102-0.319v-8.547
						c0-0.144,0.033-0.291,0.102-0.435c0.069-0.147,0.15-0.246,0.245-0.3l1.623-0.938c0.094-0.054,0.176-0.049,0.245,0.017
						c0.069,0.066,0.103,0.172,0.103,0.317V67.839z M175.862,72.103c0,0.146-0.035,0.292-0.103,0.438
						c-0.069,0.145-0.151,0.246-0.245,0.3l-1.623,0.938c-0.095,0.054-0.176,0.047-0.245-0.017c-0.069-0.067-0.102-0.173-0.102-0.319
						v-2.002c0-0.144,0.033-0.291,0.102-0.435c0.069-0.147,0.15-0.246,0.245-0.3l1.623-0.938c0.094-0.054,0.176-0.05,0.245,0.017
						c0.069,0.066,0.103,0.173,0.103,0.317V72.103z"/>
				</g>
				<g>
					<path style="opacity:0.8;fill:#455A64;" d="M134.855,131.742c-0.618-0.353-3.675-2.141-4.381-2.527
						c-0.298-0.166-0.53-0.441-0.64-0.839l-1.595-5.752l3.239-1.896l2.836,10.23C134.414,131.311,134.601,131.565,134.855,131.742z"
						/>
					<path style="opacity:0.2;" d="M134.855,131.742c-0.618-0.353-3.675-2.141-4.381-2.527c-0.298-0.166-0.53-0.441-0.64-0.839
						l-1.595-5.752l3.239-1.896l2.836,10.23C134.414,131.311,134.601,131.565,134.855,131.742z"/>
				</g>
				<path id="XMLID_62_" style="opacity:0.3;fill:#FFFFFF;" d="M180.527,32.464c0.307,0.207,2.903,1.677,3.516,2.028
					c-0.342-0.144-0.793-0.09-1.28,0.189L84.885,91.213c-0.541,0.307-1.028,0.847-1.379,1.46l-3.669-2.118
					c0.352-0.613,0.847-1.145,1.388-1.461l97.878-56.522C179.661,32.248,180.175,32.23,180.527,32.464z"/>
				<path id="XMLID_61_" style="opacity:0.2;" d="M82.929,146.537c0,0.559,0.18,0.974,0.478,1.208
					c-0.622-0.361-3.245-1.866-3.579-2.064c-0.342-0.207-0.559-0.64-0.559-1.253V92.475c0-0.622,0.216-1.307,0.568-1.92l3.669,2.118
					c-0.361,0.613-0.577,1.298-0.577,1.92V146.537z"/>
			</g>
		</g>
		<path id="XMLID_58_" style="opacity:0.5;fill:#FAFAFA;" d="M178.666,45.775l1.273-2.696c0.15-0.319,0.15-0.694,0-0.839
			c-0.151-0.145-0.395-0.004-0.545,0.315l-1.273,2.696l-1.273-1.226c-0.151-0.145-0.395-0.004-0.545,0.315
			c-0.15,0.319-0.15,0.694,0,0.839l1.273,1.226l-1.273,2.696c-0.15,0.319-0.15,0.694,0,0.839c0.075,0.072,0.174,0.073,0.273,0.016
			c0.099-0.057,0.197-0.172,0.273-0.331l1.273-2.696l1.273,1.226c0.075,0.072,0.174,0.073,0.273,0.016
			c0.098-0.057,0.197-0.172,0.273-0.331c0.15-0.319,0.15-0.694,0-0.839L178.666,45.775z"/>
		<g>
			<path style="fill:#27DEBF;" d="M140.047,103.811c0.691-0.399,1.252-0.076,1.252,0.723c0,0.798-0.56,1.769-1.251,2.168
				c-0.691,0.399-1.252,0.076-1.252-0.723C138.795,105.181,139.355,104.211,140.047,103.811z"/>
			<path style="fill:#E0E0E0;" d="M135.564,106.399c0.691-0.399,1.252-0.076,1.252,0.723c0,0.798-0.56,1.769-1.251,2.168
				c-0.691,0.399-1.252,0.076-1.252-0.723C134.312,107.769,134.872,106.799,135.564,106.399z"/>
			<path style="fill:#E0E0E0;" d="M131.081,108.987c0.691-0.399,1.252-0.076,1.252,0.723s-0.56,1.769-1.251,2.168
				c-0.691,0.399-1.252,0.076-1.252-0.723C129.829,110.357,130.389,109.387,131.081,108.987z"/>
		</g>
	</g>
	<g id="_x32_nd_Tab_1_">
		<g id="XMLID_54_">
			<g id="XMLID_55_">
				<path style="opacity:0.8;fill:#455A64;" d="M121.361,319.879l-8.375,0.533v-21.98c0-0.62-0.217-1.056-0.567-1.261
					c-0.354-0.207-3.293-1.869-3.617-2.084c-0.356-0.236-0.865-0.219-1.429,0.106l-44.778,25.865
					c-1.078,0.622-1.952,2.136-1.952,3.381l0.002,48.211c0,0.613,0.212,1.046,0.555,1.254c0.354,0.214,3.322,1.911,3.67,2.117
					c0.354,0.209,0.845,0.182,1.388-0.132l44.776-25.866c1.078-0.622,1.952-2.136,1.952-3.381l0.001-13.123l-0.001-0.164
					c0,0,6.174-6.837,9.667-10.879C123.566,321.421,122.753,319.791,121.361,319.879z"/>
				<g>
					<path style="opacity:0.8;fill:#455A64;" d="M122.274,320.097c-0.254-0.155-0.574-0.243-0.916-0.221l-8.377,0.541v-2.903
						l3.918-0.243c0.342-0.022,0.651,0.055,0.894,0.21C118.588,317.945,122.009,319.942,122.274,320.097z"/>
					<path style="opacity:0.3;fill:#FFFFFF;" d="M122.274,320.097c-0.254-0.155-0.574-0.243-0.916-0.221l-8.377,0.541v-2.903
						l3.918-0.243c0.342-0.022,0.651,0.055,0.894,0.21C118.588,317.945,122.009,319.942,122.274,320.097z"/>
				</g>
				<path id="XMLID_57_" style="opacity:0.3;fill:#FFFFFF;" d="M108.8,295.088c0.307,0.207,2.903,1.677,3.516,2.028
					c-0.343-0.144-0.793-0.09-1.28,0.189l-44.778,25.868c-0.541,0.307-1.028,0.847-1.379,1.46l-3.669-2.118
					c0.351-0.613,0.847-1.145,1.388-1.461l44.778-25.859C107.935,294.872,108.448,294.854,108.8,295.088z"/>
				<path id="XMLID_56_" style="opacity:0.2;" d="M64.302,374.762c0,0.559,0.18,0.974,0.478,1.208
					c-0.622-0.361-3.245-1.866-3.579-2.064c-0.343-0.207-0.559-0.64-0.559-1.253v-48.217c0-0.622,0.216-1.307,0.568-1.92
					l3.669,2.118c-0.361,0.613-0.577,1.298-0.577,1.92V374.762z"/>
			</g>
		</g>
		<g>
			<path style="fill:#E0E0E0;" d="M84.427,353.408c0.691-0.399,1.252-0.076,1.252,0.723c0,0.798-0.56,1.769-1.251,2.168
				c-0.691,0.399-1.252,0.076-1.252-0.723C83.175,354.778,83.736,353.807,84.427,353.408z"/>
			<path style="fill:#27DEBF;" d="M79.944,355.996c0.691-0.399,1.252-0.076,1.252,0.723c0,0.798-0.56,1.769-1.251,2.168
				c-0.691,0.399-1.252,0.076-1.252-0.722C78.692,357.366,79.252,356.395,79.944,355.996z"/>
			<path style="fill:#E0E0E0;" d="M75.461,358.584c0.691-0.399,1.252-0.076,1.252,0.723c0,0.798-0.56,1.769-1.251,2.168
				c-0.691,0.399-1.252,0.076-1.252-0.723C74.209,359.954,74.769,358.983,75.461,358.584z"/>
		</g>
		<g>
			<g>
				<path style="fill:#27DEBF;" d="M103.674,339.917c-0.216-0.126-0.516-0.109-0.847,0.082l-11.06,6.385
					c-0.66,0.381-1.195,1.307-1.195,2.069l0,5.006c0,0.381,0.134,0.649,0.35,0.773c0.216,0.125,1.349,0.773,1.561,0.9
					c0.217,0.129,0.518,0.113,0.852-0.08l11.059-6.385c0.66-0.381,1.195-1.307,1.195-2.069v-5.006c0-0.386-0.137-0.656-0.358-0.778
					C105.016,340.695,103.889,340.043,103.674,339.917z"/>
				<path style="opacity:0.2;" d="M90.898,347.332c-0.198,0.361-0.326,0.759-0.326,1.121l0.001,5.006
					c0,0.381,0.134,0.649,0.35,0.773c0.216,0.125,1.349,0.773,1.561,0.9c0.217,0.129,0.518,0.113,0.851-0.08l5.463-3.154
					L90.898,347.332z"/>
				<path style="opacity:0.5;fill:#FFFFFF;" d="M103.674,339.917c-0.217-0.126-0.516-0.109-0.848,0.082l-11.059,6.385
					c-0.346,0.199-0.651,0.551-0.869,0.948v0l7.9,4.566l5.596-3.231c0.66-0.381,1.195-1.307,1.195-2.069v-5.006
					c0-0.386-0.137-0.656-0.358-0.778C105.016,340.695,103.889,340.043,103.674,339.917z"/>
				<path style="fill:#27DEBF;" d="M92.14,349.357l0,5.006c0,0.762,0.535,1.071,1.195,0.69l11.059-6.385
					c0.66-0.381,1.195-1.307,1.195-2.069l0-5.006c0-0.762-0.535-1.071-1.195-0.69l-11.06,6.385
					C92.675,347.669,92.14,348.595,92.14,349.357z"/>
			</g>
			<g>
				<path style="fill:#FAFAFA;" d="M96.368,351.328c-0.044,0.025-0.078,0.027-0.1,0.005c-0.024-0.023-0.04-0.04-0.05-0.055
					l-1.072-1.831v2.427c0,0.043-0.01,0.086-0.03,0.129c-0.021,0.043-0.044,0.073-0.072,0.088l-0.31,0.179
					c-0.028,0.017-0.053,0.015-0.072-0.004c-0.021-0.019-0.031-0.051-0.031-0.095v-3.807c0-0.043,0.011-0.086,0.031-0.129
					c0.019-0.043,0.044-0.072,0.072-0.088l0.268-0.155c0.043-0.025,0.077-0.027,0.099-0.004c0.023,0.022,0.04,0.039,0.05,0.054
					l1.072,1.832v-2.428c0-0.043,0.01-0.085,0.029-0.128c0.021-0.044,0.045-0.073,0.073-0.09l0.31-0.18
					c0.028-0.015,0.053-0.015,0.072,0.006c0.021,0.019,0.031,0.05,0.031,0.093v3.807c0,0.045-0.011,0.087-0.031,0.13
					c-0.019,0.042-0.044,0.072-0.072,0.089L96.368,351.328z"/>
				<path style="fill:#FAFAFA;" d="M97.24,349.292c0-0.22,0.022-0.44,0.065-0.659c0.043-0.22,0.106-0.423,0.188-0.615
					c0.082-0.191,0.18-0.36,0.298-0.511c0.115-0.149,0.246-0.265,0.388-0.347c0.143-0.083,0.273-0.116,0.388-0.103
					c0.118,0.013,0.214,0.065,0.297,0.153c0.081,0.088,0.145,0.21,0.189,0.367c0.045,0.156,0.068,0.335,0.068,0.536v0.265
					c0,0.043-0.011,0.086-0.031,0.129c-0.021,0.043-0.044,0.073-0.072,0.091l-1.279,0.737c0,0.091,0.013,0.163,0.037,0.218
					c0.025,0.055,0.057,0.095,0.098,0.116c0.041,0.024,0.087,0.032,0.142,0.026c0.053-0.007,0.108-0.028,0.164-0.06
					c0.081-0.046,0.148-0.097,0.198-0.153c0.052-0.056,0.094-0.112,0.127-0.17c0.028-0.048,0.051-0.082,0.068-0.104
					c0.018-0.023,0.042-0.043,0.073-0.06l0.306-0.177c0.028-0.017,0.053-0.015,0.074,0.004c0.022,0.018,0.032,0.05,0.029,0.095
					c-0.002,0.056-0.023,0.139-0.059,0.247c-0.037,0.107-0.093,0.223-0.166,0.349c-0.074,0.124-0.166,0.249-0.274,0.37
					c-0.109,0.121-0.234,0.224-0.377,0.306c-0.142,0.083-0.273,0.118-0.388,0.11c-0.118-0.01-0.216-0.061-0.298-0.155
					c-0.082-0.095-0.144-0.226-0.188-0.397C97.262,349.73,97.24,349.528,97.24,349.292z M98.178,347.867
					c-0.073,0.042-0.137,0.096-0.19,0.16c-0.052,0.064-0.096,0.132-0.132,0.205c-0.037,0.074-0.064,0.149-0.083,0.225
					c-0.018,0.075-0.031,0.146-0.037,0.206l0.865-0.499c-0.004-0.055-0.015-0.112-0.029-0.169c-0.014-0.056-0.037-0.102-0.068-0.137
					c-0.032-0.033-0.074-0.053-0.127-0.056C98.327,347.798,98.259,347.82,98.178,347.867z"/>
				<path style="fill:#FAFAFA;" d="M100.367,348.047l-0.452,1.121c-0.026,0.061-0.052,0.107-0.079,0.137
					c-0.026,0.029-0.057,0.054-0.09,0.072l-0.295,0.17c-0.028,0.016-0.051,0.014-0.071-0.007c-0.018-0.021-0.028-0.054-0.028-0.101
					c0-0.031,0.005-0.061,0.015-0.092l0.689-1.711l-0.657-0.875c-0.011-0.017-0.016-0.042-0.016-0.073
					c0-0.047,0.011-0.093,0.029-0.134c0.019-0.043,0.043-0.073,0.071-0.088l0.294-0.17c0.033-0.019,0.063-0.03,0.09-0.032
					c0.027-0.001,0.053,0.014,0.078,0.047l0.433,0.573l0.429-1.071c0.025-0.063,0.051-0.108,0.078-0.137
					c0.027-0.029,0.057-0.053,0.09-0.072l0.295-0.17c0.028-0.016,0.052-0.013,0.071,0.006c0.018,0.02,0.029,0.054,0.029,0.101
					c0,0.03-0.005,0.063-0.016,0.092l-0.665,1.663l0.681,0.897c0.01,0.017,0.015,0.043,0.015,0.073c0,0.047-0.01,0.093-0.029,0.135
					c-0.018,0.042-0.043,0.072-0.071,0.088l-0.294,0.169c-0.033,0.019-0.064,0.03-0.09,0.032c-0.026,0.001-0.052-0.014-0.079-0.046
					L100.367,348.047z"/>
				<path style="fill:#FAFAFA;" d="M102.465,346.7c0,0.122,0.021,0.207,0.063,0.255c0.042,0.049,0.12,0.04,0.235-0.026l0.234-0.136
					c0.028-0.016,0.053-0.014,0.072,0.007c0.021,0.019,0.031,0.05,0.031,0.094v0.388c0,0.044-0.011,0.087-0.031,0.13
					c-0.019,0.042-0.044,0.072-0.072,0.088l-0.283,0.164c-0.24,0.138-0.424,0.155-0.553,0.051c-0.129-0.104-0.194-0.341-0.194-0.709
					v-1.267l-0.252,0.146c-0.028,0.016-0.052,0.014-0.072-0.005s-0.031-0.051-0.031-0.094v-0.388c0-0.045,0.011-0.087,0.031-0.13
					c0.021-0.043,0.044-0.073,0.072-0.089l0.252-0.146v-0.96c0-0.043,0.011-0.086,0.031-0.129c0.02-0.043,0.044-0.073,0.072-0.091
					l0.292-0.168c0.028-0.015,0.052-0.013,0.072,0.007c0.021,0.019,0.031,0.051,0.031,0.094v0.96l0.494-0.285
					c0.028-0.017,0.052-0.015,0.071,0.005c0.022,0.019,0.031,0.051,0.031,0.094v0.388c0,0.045-0.01,0.087-0.031,0.13
					c-0.019,0.042-0.043,0.072-0.071,0.09l-0.494,0.285V346.7z"/>
			</g>
		</g>
		<g>
			<g>
				<path style="fill:#FAFAFA;" d="M71.022,339.058c-0.061,0.036-0.109,0.038-0.14,0.007c-0.032-0.03-0.056-0.056-0.07-0.076
					l-1.509-2.58v3.417c0,0.063-0.014,0.122-0.042,0.183c-0.029,0.061-0.063,0.102-0.103,0.125l-0.435,0.252
					c-0.039,0.023-0.074,0.022-0.102-0.008c-0.029-0.027-0.043-0.071-0.043-0.133v-5.357c0-0.06,0.014-0.121,0.043-0.182
					c0.028-0.061,0.064-0.103,0.102-0.126l0.377-0.218c0.06-0.035,0.107-0.037,0.14-0.005c0.031,0.031,0.055,0.057,0.07,0.074
					l1.508,2.58v-3.416c0-0.06,0.014-0.122,0.043-0.183c0.028-0.06,0.063-0.102,0.101-0.125l0.438-0.252
					c0.039-0.023,0.073-0.019,0.101,0.009c0.029,0.027,0.044,0.071,0.044,0.132v5.357c0,0.061-0.015,0.122-0.044,0.183
					c-0.028,0.06-0.063,0.102-0.101,0.125L71.022,339.058z"/>
				<path style="fill:#FAFAFA;" d="M72.196,336.225c0-0.31,0.031-0.62,0.092-0.928c0.061-0.309,0.15-0.597,0.264-0.866
					c0.115-0.267,0.254-0.507,0.417-0.717c0.164-0.21,0.346-0.374,0.548-0.49c0.201-0.116,0.383-0.164,0.546-0.145
					c0.164,0.018,0.303,0.091,0.417,0.214c0.115,0.125,0.204,0.298,0.266,0.518c0.064,0.221,0.095,0.473,0.095,0.753v0.375
					c0,0.06-0.014,0.121-0.043,0.181c-0.029,0.061-0.063,0.102-0.102,0.125l-1.799,1.039c0,0.128,0.016,0.229,0.051,0.306
					c0.035,0.078,0.081,0.131,0.138,0.166c0.057,0.033,0.124,0.045,0.199,0.035c0.075-0.011,0.152-0.039,0.232-0.084
					c0.114-0.067,0.208-0.138,0.28-0.215c0.071-0.078,0.13-0.157,0.177-0.239c0.04-0.067,0.072-0.116,0.097-0.148
					c0.026-0.031,0.06-0.059,0.102-0.084l0.431-0.249c0.04-0.023,0.074-0.019,0.106,0.006c0.03,0.026,0.043,0.071,0.04,0.134
					c-0.004,0.08-0.031,0.195-0.083,0.347c-0.053,0.152-0.132,0.316-0.235,0.492c-0.104,0.177-0.232,0.35-0.385,0.522
					c-0.152,0.17-0.33,0.315-0.53,0.43c-0.201,0.116-0.384,0.167-0.548,0.154c-0.163-0.013-0.302-0.086-0.417-0.22
					c-0.114-0.133-0.203-0.318-0.264-0.556C72.227,336.84,72.196,336.556,72.196,336.225z M73.516,334.219
					c-0.104,0.06-0.193,0.134-0.267,0.224c-0.073,0.09-0.135,0.185-0.185,0.289c-0.051,0.103-0.09,0.209-0.116,0.317
					c-0.027,0.107-0.043,0.203-0.051,0.29l1.217-0.703c-0.007-0.079-0.021-0.157-0.04-0.238c-0.019-0.08-0.053-0.144-0.097-0.192
					c-0.045-0.05-0.103-0.076-0.178-0.08C73.725,334.121,73.63,334.152,73.516,334.219z"/>
				<path style="fill:#FAFAFA;" d="M76.541,334.504l-0.635,1.578c-0.036,0.086-0.073,0.151-0.111,0.192
					c-0.037,0.041-0.08,0.075-0.126,0.101l-0.415,0.239c-0.039,0.024-0.072,0.021-0.099-0.009c-0.028-0.028-0.041-0.075-0.041-0.142
					c0-0.043,0.008-0.086,0.022-0.128l0.97-2.409l-0.927-1.232c-0.014-0.025-0.022-0.059-0.022-0.102c0-0.067,0.014-0.13,0.04-0.19
					c0.027-0.06,0.062-0.101,0.1-0.125l0.415-0.239c0.046-0.026,0.089-0.041,0.126-0.043c0.039-0.003,0.075,0.019,0.111,0.065
					l0.608,0.81l0.604-1.511c0.036-0.086,0.073-0.151,0.111-0.192c0.037-0.041,0.08-0.076,0.126-0.102l0.415-0.239
					c0.039-0.023,0.073-0.019,0.1,0.01c0.027,0.028,0.04,0.076,0.04,0.142c0,0.044-0.007,0.087-0.021,0.127l-0.938,2.341
					l0.959,1.263c0.014,0.026,0.022,0.06,0.022,0.104c0,0.067-0.013,0.129-0.04,0.189c-0.028,0.061-0.061,0.102-0.1,0.124
					l-0.415,0.239c-0.046,0.028-0.088,0.042-0.126,0.045c-0.038,0.002-0.076-0.019-0.111-0.065L76.541,334.504z"/>
				<path style="fill:#FAFAFA;" d="M79.439,332.639c0,0.172,0.03,0.291,0.089,0.359c0.059,0.068,0.169,0.056,0.331-0.038l0.329-0.19
					c0.039-0.022,0.073-0.021,0.102,0.006c0.028,0.028,0.043,0.073,0.043,0.134v0.548c0,0.06-0.015,0.121-0.043,0.181
					c-0.029,0.063-0.064,0.103-0.102,0.127l-0.399,0.23c-0.337,0.195-0.597,0.219-0.778,0.072c-0.181-0.147-0.272-0.481-0.272-1
					v-1.783l-0.356,0.205c-0.039,0.023-0.073,0.022-0.102-0.007c-0.028-0.028-0.043-0.072-0.043-0.132v-0.548
					c0-0.06,0.015-0.122,0.043-0.182c0.029-0.06,0.064-0.103,0.102-0.126l0.356-0.206v-1.352c0-0.06,0.014-0.121,0.043-0.181
					c0.029-0.061,0.063-0.104,0.102-0.127l0.409-0.235c0.04-0.024,0.074-0.021,0.103,0.006c0.028,0.028,0.042,0.073,0.042,0.134
					v1.352l0.695-0.401c0.04-0.024,0.073-0.021,0.102,0.006c0.029,0.028,0.043,0.073,0.043,0.134v0.548
					c0,0.06-0.014,0.121-0.043,0.181c-0.029,0.061-0.063,0.102-0.102,0.125l-0.695,0.401V332.639z"/>
				<path style="fill:#FAFAFA;" d="M80.834,332.456c0.007-0.082,0.03-0.168,0.068-0.259c0.038-0.09,0.092-0.156,0.164-0.198
					l0.469-0.269c0.032-0.019,0.06-0.018,0.084,0.004c0.023,0.023,0.035,0.059,0.035,0.109c0,0.022-0.002,0.042-0.005,0.061
					l-0.355,1.581c-0.015,0.064-0.04,0.136-0.073,0.216c-0.035,0.081-0.087,0.141-0.158,0.183l-0.242,0.14
					c-0.033,0.018-0.06,0.016-0.084-0.005c-0.024-0.021-0.034-0.058-0.034-0.108v-0.017L80.834,332.456z"/>
			</g>
			<path style="fill:#FAFAFA;" d="M82.872,331.103l-0.008-0.801c-0.006-0.609,0.417-1.35,0.945-1.654l23.737-13.669
				c0.528-0.304,0.956-0.057,0.957,0.553l0,0.784c0,0.609-0.428,1.351-0.956,1.655l-23.707,13.684
				C83.311,331.959,82.878,331.712,82.872,331.103z"/>
			<path style="fill:#FAFAFA;" d="M68.175,347.795l-0.008-0.801c-0.006-0.609,0.417-1.351,0.944-1.655l38.436-22.191
				c0.528-0.305,0.956-0.058,0.956,0.552l0,0.784c0,0.609-0.428,1.351-0.955,1.656l-38.405,22.207
				C68.615,348.651,68.182,348.405,68.175,347.795z"/>
		</g>
		<path id="XMLID_53_" style="opacity:0.5;fill:#FAFAFA;" d="M108.066,305.067l1.273-2.696c0.151-0.319,0.151-0.694,0-0.839
			c-0.151-0.145-0.395-0.004-0.545,0.315l-1.273,2.696l-1.273-1.225c-0.15-0.145-0.394-0.004-0.545,0.315s-0.151,0.694,0,0.839
			l1.273,1.226l-1.273,2.696c-0.151,0.319-0.151,0.694,0,0.839c0.075,0.072,0.174,0.073,0.272,0.016
			c0.099-0.057,0.197-0.172,0.273-0.331l1.273-2.696l1.273,1.226c0.075,0.072,0.174,0.073,0.272,0.016
			c0.099-0.057,0.197-0.172,0.273-0.331c0.151-0.319,0.151-0.694,0-0.839L108.066,305.067z"/>
	</g>
	<g id="_x31_st_Tab_1_">
		<g id="XMLID_46_">
			<g id="XMLID_51_" style="opacity:0.15;">
				<path d="M207.678,439.723c-0.698-0.389-3.568-2.073-3.936-2.272c-0.408-0.219-0.658-0.708-0.658-1.415V282.233l4.046,2.342
					v153.803C207.129,439.016,207.339,439.474,207.678,439.723z"/>
			</g>
			<g id="XMLID_49_" style="opacity:0.05;">
				<polygon points="389.431,179.46 207.129,284.575 203.083,282.233 385.385,177.118 				"/>
			</g>
			<g id="XMLID_47_" style="opacity:0.1;">
				<path d="M389.446,333.266c0,1.375-0.967,3.049-2.162,3.737L209.283,439.622c-1.186,0.688-2.152,0.13-2.152-1.246V284.571
					L389.436,179.46L389.446,333.266z"/>
			</g>
		</g>
		<g>
			<g id="XMLID_41_">
				<g id="XMLID_42_">
					<path id="XMLID_45_" style="opacity:0.8;fill:#455A64;" d="M352.99,242.017c-0.356-0.236-0.865-0.219-1.429,0.107
						l-97.878,56.527c-1.078,0.622-1.952,2.136-1.952,3.381l0.002,82.074c0,0.613,0.212,1.046,0.555,1.254
						c0.354,0.215,3.322,1.911,3.67,2.117c0.354,0.209,0.845,0.182,1.388-0.132l97.876-56.529c1.078-0.622,1.952-2.136,1.952-3.38
						v-82.073c0-0.62-0.217-1.056-0.567-1.261C356.254,243.895,353.315,242.232,352.99,242.017z"/>
					<path id="XMLID_44_" style="opacity:0.3;fill:#FFFFFF;" d="M352.989,242.018c0.306,0.207,2.903,1.677,3.516,2.028
						c-0.343-0.144-0.793-0.09-1.28,0.189l-97.878,56.531c-0.541,0.307-1.028,0.847-1.379,1.46l-3.669-2.118
						c0.351-0.613,0.847-1.145,1.388-1.461l97.878-56.522C352.124,241.802,352.638,241.784,352.989,242.018z"/>
					<path id="XMLID_43_" style="opacity:0.2;" d="M255.391,386.218c0,0.559,0.18,0.974,0.478,1.208
						c-0.622-0.361-3.245-1.866-3.579-2.064c-0.342-0.207-0.559-0.64-0.559-1.253v-82.079c0-0.622,0.216-1.307,0.568-1.92
						l3.669,2.118c-0.361,0.613-0.577,1.298-0.577,1.92V386.218z"/>
				</g>
			</g>
			<g>
				<path style="fill:#FFFFFF;" d="M286.404,304.44c0-0.997-0.045-1.695-0.136-2.096c-0.09-0.401-0.136-0.692-0.136-0.879
					c0-0.3,0.09-0.504,0.272-0.609c0.211-0.122,0.478-0.182,0.802-0.184c0.324-0.001,0.637,0.067,0.938,0.207
					c0.302,0.138,0.563,0.353,0.78,0.645c0.219,0.291,0.328,0.68,0.328,1.167c0,1.44-0.101,3.035-0.305,4.787
					c-0.204,1.752-0.494,3.557-0.87,5.408c-0.377,1.854-0.821,3.682-1.333,5.486c-0.513,1.804-1.073,3.462-1.685,4.973
					c-0.61,1.513-1.265,2.819-1.967,3.92c-0.699,1.1-1.412,1.859-2.135,2.277c-0.633,0.365-1.134,0.451-1.502,0.259
					c-0.37-0.192-0.661-0.483-0.871-0.871c-0.241-0.466-0.407-1.041-0.497-1.733c-0.453,1.004-0.927,1.951-1.425,2.841
					c-0.436,0.763-0.927,1.504-1.469,2.222c-0.542,0.719-1.107,1.248-1.694,1.589c-0.362,0.208-0.709,0.321-1.04,0.338
					c-0.332,0.017-0.629-0.06-0.892-0.233c-0.264-0.172-0.471-0.446-0.622-0.823c-0.151-0.377-0.225-0.867-0.225-1.47
					c0-0.813,0.1-1.763,0.304-2.856c0.204-1.093,0.46-2.26,0.77-3.507c0.307-1.244,0.643-2.522,1.004-3.834
					c0.362-1.31,0.697-2.594,1.007-3.852c0.308-1.256,0.565-2.437,0.769-3.54c0.203-1.104,0.305-2.072,0.305-2.908
					c0-0.417-0.076-0.739-0.226-0.966c-0.151-0.225-0.399-0.238-0.746-0.039c-0.452,0.261-0.976,0.847-1.57,1.76
					c-0.596,0.912-1.153,1.947-1.673,3.105c-0.521,1.16-0.96,2.341-1.322,3.548c-0.362,1.206-0.543,2.227-0.543,3.062
					c0,0.672,0.057,1.197,0.17,1.572c0.113,0.375,0.241,0.673,0.385,0.891c0.142,0.219,0.271,0.377,0.384,0.473
					c0.113,0.098,0.169,0.205,0.169,0.321c0,0.44-0.158,0.752-0.474,0.934c-0.302,0.174-0.667,0.246-1.096,0.216
					c-0.429-0.03-0.844-0.162-1.244-0.396c-0.399-0.234-0.741-0.582-1.028-1.042c-0.287-0.46-0.429-1.039-0.429-1.735
					c0-0.811,0.142-1.712,0.429-2.701c0.287-0.988,0.67-1.994,1.153-3.015c0.482-1.021,1.031-2.028,1.65-3.024
					c0.618-0.994,1.258-1.914,1.921-2.761c0.663-0.847,1.322-1.593,1.978-2.237c0.655-0.646,1.254-1.125,1.797-1.438
					c0.919-0.531,1.662-0.606,2.227-0.224c0.565,0.382,0.847,1.291,0.847,2.73c0,0.719-0.094,1.592-0.282,2.616
					c-0.188,1.025-0.426,2.136-0.711,3.335c-0.287,1.197-0.596,2.431-0.927,3.701c-0.332,1.27-0.64,2.493-0.927,3.667
					c-0.287,1.175-0.524,2.257-0.712,3.247c-0.189,0.99-0.282,1.811-0.282,2.46c0,0.464,0.09,0.777,0.272,0.94
					c0.181,0.163,0.414,0.161,0.701-0.005c0.286-0.164,0.61-0.547,0.971-1.151c0.363-0.604,0.702-1.239,1.017-1.91
					c0.376-0.774,0.753-1.63,1.13-2.567c0.151-2.127,0.384-4.095,0.701-5.902c0.136-0.774,0.29-1.536,0.463-2.286
					c0.172-0.749,0.38-1.454,0.622-2.117c0.24-0.661,0.511-1.234,0.813-1.721c0.302-0.487,0.633-0.836,0.995-1.045
					c0.376-0.217,0.682-0.213,0.916,0.012c0.233,0.225,0.35,0.605,0.35,1.137c0,0.418-0.046,0.909-0.136,1.47
					c-0.09,0.563-0.211,1.162-0.362,1.792c-0.15,0.633-0.32,1.275-0.509,1.93c-0.189,0.653-0.38,1.293-0.576,1.915
					c-0.468,1.475-0.995,2.998-1.582,4.567c0.059,0.545,0.15,1.004,0.271,1.375c0.106,0.334,0.24,0.604,0.407,0.808
					c0.166,0.207,0.384,0.231,0.655,0.075c0.482-0.279,0.956-0.849,1.424-1.709c0.467-0.862,0.904-1.898,1.312-3.107
					c0.406-1.208,0.779-2.56,1.118-4.056c0.34-1.494,0.629-3.008,0.871-4.538c0.24-1.531,0.43-3.049,0.565-4.555
					C286.336,307.071,286.404,305.692,286.404,304.44z"/>
				<path style="fill:#FFFFFF;" d="M296.868,316.077c-0.332,1.002-0.746,1.96-1.243,2.873c-0.422,0.778-0.946,1.568-1.571,2.369
					c-0.625,0.802-1.368,1.451-2.226,1.947c-0.573,0.332-1.1,0.508-1.582,0.531c-0.483,0.023-0.898-0.092-1.244-0.344
					c-0.347-0.252-0.618-0.635-0.814-1.148c-0.196-0.514-0.294-1.141-0.294-1.883c0-1.323,0.159-2.621,0.475-3.894
					c0.317-1.273,0.715-2.437,1.197-3.493c0.483-1.055,1.007-1.955,1.571-2.699c0.565-0.744,1.096-1.259,1.593-1.546
					c0.346-0.2,0.67-0.282,0.972-0.25c0.301,0.037,0.565,0.156,0.791,0.362c0.225,0.206,0.403,0.492,0.531,0.86
					c0.127,0.366,0.192,0.783,0.192,1.246c0,0.416-0.06,0.957-0.181,1.617c-0.121,0.662-0.32,1.34-0.598,2.034
					c-0.279,0.695-0.656,1.372-1.131,2.027c-0.475,0.657-1.066,1.19-1.774,1.598c-0.166,0.096-0.34,0.161-0.521,0.197
					c-0.105,0.037-0.218,0.067-0.339,0.09c0,1.043,0.195,1.731,0.587,2.061c0.392,0.332,0.859,0.341,1.402,0.026
					c0.527-0.304,1.009-0.75,1.445-1.339c0.436-0.589,0.806-1.167,1.108-1.735c0.361-0.673,0.67-1.384,0.927-2.136
					c0.015-0.079,0.052-0.181,0.113-0.308c0.029-0.065,0.074-0.142,0.135-0.235c0.06-0.093,0.128-0.162,0.204-0.205
					c0.121-0.069,0.23-0.063,0.328,0.019c0.098,0.083,0.148,0.218,0.148,0.403c0,0.093-0.012,0.186-0.034,0.28
					c-0.023,0.095-0.048,0.196-0.08,0.306C296.928,315.82,296.898,315.943,296.868,316.077z M290.788,317.081
					c0.406-0.235,0.79-0.632,1.152-1.188c0.362-0.556,0.675-1.161,0.939-1.813c0.263-0.649,0.47-1.285,0.622-1.908
					c0.15-0.62,0.225-1.114,0.225-1.487c0-0.464-0.136-0.616-0.406-0.461c-0.317,0.183-0.626,0.56-0.927,1.127
					c-0.302,0.569-0.569,1.198-0.803,1.89c-0.234,0.692-0.426,1.395-0.577,2.108C290.863,316.064,290.788,316.639,290.788,317.081z"
					/>
				<path style="fill:#FFFFFF;" d="M299.444,318.868c-0.452,0.261-0.885,0.395-1.299,0.403c-0.415,0.006-0.779-0.125-1.096-0.395
					c-0.316-0.269-0.569-0.675-0.758-1.216c-0.188-0.54-0.282-1.216-0.282-2.028c0-1.16,0.087-2.498,0.26-4.014
					c0.173-1.515,0.418-3.076,0.735-4.686c0.316-1.61,0.681-3.206,1.096-4.792c0.414-1.584,0.87-3.048,1.368-4.391
					c0.497-1.342,1.013-2.481,1.548-3.417c0.535-0.935,1.075-1.561,1.617-1.873c0.255-0.148,0.497-0.193,0.723-0.138
					c0.226,0.054,0.426,0.17,0.598,0.349c0.174,0.179,0.313,0.405,0.418,0.681c0.106,0.276,0.158,0.564,0.158,0.865
					c0,0.487-0.086,1.159-0.26,2.012c-0.173,0.854-0.403,1.798-0.689,2.832c-0.287,1.036-0.622,2.13-1.007,3.279
					c-0.384,1.15-0.784,2.279-1.197,3.388c-0.415,1.109-0.833,2.163-1.255,3.16c-0.421,0.998-0.821,1.848-1.198,2.553
					c-0.03,0.295-0.059,0.604-0.09,0.922c-0.031,0.274-0.053,0.571-0.068,0.892c-0.015,0.321-0.023,0.634-0.023,0.935
					c0,0.813,0.124,1.401,0.372,1.768c0.25,0.366,0.607,0.416,1.073,0.147c0.302-0.175,0.599-0.497,0.893-0.968
					c0.294-0.472,0.554-0.969,0.779-1.495c0.272-0.574,0.521-1.217,0.746-1.926c0.015-0.08,0.054-0.182,0.114-0.31
					c0.03-0.063,0.074-0.14,0.135-0.234c0.06-0.093,0.128-0.161,0.204-0.205c0.121-0.07,0.23-0.063,0.328,0.021
					c0.098,0.082,0.147,0.217,0.147,0.402c0,0.093-0.011,0.186-0.033,0.28c-0.023,0.095-0.049,0.197-0.08,0.307
					c-0.029,0.11-0.059,0.231-0.091,0.365c-0.331,1.003-0.699,1.935-1.107,2.796c-0.347,0.735-0.757,1.458-1.232,2.173
					C300.518,318.027,300.001,318.547,299.444,318.868z M303.4,294.836c0-0.326-0.09-0.434-0.272-0.33
					c-0.211,0.122-0.486,0.64-0.824,1.554c-0.339,0.916-0.694,2.06-1.064,3.433c-0.369,1.372-0.734,2.883-1.095,4.53
					c-0.361,1.647-0.655,3.267-0.882,4.858c0.257-0.473,0.539-1.099,0.848-1.882c0.307-0.78,0.613-1.636,0.914-2.564
					c0.302-0.928,0.596-1.88,0.883-2.857c0.286-0.976,0.538-1.907,0.757-2.786c0.219-0.88,0.395-1.673,0.531-2.376
					C303.331,295.71,303.4,295.183,303.4,294.836z"/>
				<path style="fill:#FFFFFF;" d="M311.694,307.517c-0.392,1.037-0.836,2.013-1.333,2.925c-0.438,0.788-0.969,1.582-1.593,2.382
					c-0.625,0.802-1.345,1.438-2.159,1.908c-0.483,0.279-0.968,0.467-1.458,0.565c-0.489,0.097-0.93,0.05-1.321-0.142
					c-0.392-0.192-0.708-0.554-0.95-1.087c-0.241-0.533-0.362-1.288-0.362-2.262c0-1.16,0.154-2.356,0.465-3.591
					c0.307-1.233,0.707-2.386,1.197-3.457c0.489-1.07,1.036-2.013,1.638-2.825c0.603-0.811,1.191-1.383,1.763-1.714
					c0.406-0.235,0.768-0.345,1.085-0.331c0.316,0.014,0.583,0.122,0.802,0.32c0.218,0.198,0.388,0.466,0.509,0.803
					c0.12,0.336,0.181,0.701,0.181,1.095c0,0.302-0.042,0.634-0.125,0.994c-0.083,0.362-0.192,0.709-0.328,1.041
					c-0.136,0.334-0.282,0.628-0.441,0.882c-0.158,0.254-0.313,0.425-0.463,0.511c-0.301,0.175-0.569,0.184-0.802,0.029
					c-0.234-0.155-0.35-0.43-0.35-0.825c0-0.302,0.044-0.571,0.135-0.809c0.091-0.238,0.193-0.465,0.306-0.68
					c0.112-0.217,0.218-0.416,0.316-0.6c0.098-0.184,0.148-0.37,0.148-0.555c0-0.185-0.065-0.317-0.192-0.393
					c-0.129-0.077-0.283-0.064-0.465,0.042c-0.331,0.191-0.651,0.567-0.96,1.128c-0.309,0.561-0.584,1.224-0.826,1.989
					c-0.24,0.765-0.436,1.581-0.586,2.443c-0.152,0.866-0.226,1.692-0.226,2.481c0,1.205,0.214,1.974,0.645,2.306
					c0.429,0.332,0.96,0.316,1.593-0.05c0.512-0.295,0.979-0.726,1.401-1.295c0.421-0.569,0.782-1.137,1.085-1.706
					c0.361-0.672,0.678-1.388,0.949-2.148c0.03-0.088,0.074-0.194,0.135-0.322c0.045-0.072,0.098-0.154,0.158-0.247
					c0.06-0.094,0.127-0.162,0.204-0.205c0.136-0.08,0.249-0.074,0.339,0.013c0.09,0.086,0.135,0.223,0.135,0.409
					c0,0.093-0.015,0.189-0.045,0.288c-0.03,0.099-0.06,0.203-0.09,0.313C311.762,307.256,311.725,307.382,311.694,307.517z"/>
				<path style="fill:#FFFFFF;" d="M321.752,301.709c-0.257,0.727-0.58,1.413-0.972,2.057c-0.332,0.586-0.743,1.17-1.231,1.754
					c-0.49,0.585-1.067,1.068-1.73,1.451c-0.271,0.156-0.565,0.291-0.882,0.404c-0.362,0.651-0.761,1.223-1.198,1.719
					c-0.436,0.496-0.896,0.883-1.378,1.162c-0.467,0.27-0.914,0.399-1.345,0.393c-0.429-0.007-0.805-0.139-1.13-0.392
					c-0.324-0.253-0.58-0.627-0.768-1.122c-0.188-0.494-0.282-1.078-0.282-1.751c0-1.461,0.162-2.846,0.486-4.16
					c0.323-1.312,0.741-2.499,1.255-3.56c0.512-1.06,1.077-1.967,1.694-2.718c0.619-0.751,1.221-1.297,1.81-1.636
					c0.467-0.27,0.903-0.405,1.309-0.409c0.407-0.003,0.758,0.137,1.052,0.419c0.293,0.282,0.527,0.694,0.701,1.231
					c0.172,0.539,0.26,1.203,0.26,1.99c0,0.929-0.124,1.974-0.373,3.138c-0.249,1.166-0.592,2.314-1.028,3.448
					c0.059-0.011,0.116-0.027,0.169-0.046c0.053-0.018,0.116-0.05,0.192-0.093c0.392-0.226,0.746-0.553,1.063-0.979
					c0.316-0.427,0.595-0.86,0.835-1.3c0.273-0.505,0.528-1.048,0.77-1.628c0.015-0.08,0.053-0.181,0.113-0.309
					c0.03-0.064,0.074-0.141,0.135-0.234c0.06-0.093,0.128-0.162,0.204-0.205c0.121-0.07,0.229-0.063,0.328,0.019
					c0.098,0.082,0.147,0.218,0.147,0.403c0,0.093-0.011,0.185-0.033,0.28c-0.023,0.095-0.048,0.196-0.08,0.306
					C321.813,301.454,321.783,301.575,321.752,301.709z M313.502,306.715c0,0.696,0.095,1.21,0.284,1.542
					c0.188,0.333,0.455,0.398,0.802,0.197c0.24-0.138,0.475-0.413,0.701-0.821c-0.257-0.108-0.385-0.312-0.385-0.613
					c0-0.185,0.042-0.406,0.125-0.664c0.083-0.257,0.184-0.501,0.305-0.733c0.121-0.232,0.246-0.437,0.373-0.615
					c0.128-0.179,0.237-0.293,0.328-0.345c0.075-0.044,0.158-0.069,0.249-0.076c0.226-1.011,0.399-2.046,0.519-3.101
					c0.121-1.055,0.181-1.966,0.181-2.731c0-0.789-0.083-1.303-0.248-1.545c-0.167-0.24-0.377-0.288-0.634-0.14
					c-0.257,0.149-0.535,0.513-0.836,1.092c-0.301,0.581-0.584,1.313-0.847,2.195c-0.264,0.884-0.483,1.867-0.655,2.953
					C313.589,304.398,313.502,305.532,313.502,306.715z"/>
				<path style="fill:#FFFFFF;" d="M330.453,297.137c0-0.788,0.06-1.542,0.18-2.26c0.121-0.72,0.253-1.388,0.397-2.005
					c0.142-0.615,0.275-1.191,0.396-1.724c0.121-0.534,0.181-0.998,0.181-1.392c0-0.231-0.039-0.377-0.113-0.439
					c-0.076-0.061-0.174-0.057-0.294,0.012c-0.257,0.149-0.602,0.716-1.039,1.699c-0.439,0.983-0.844,2.302-1.221,3.957
					c-0.332,1.421-0.572,2.691-0.723,3.81c-0.151,1.12-0.226,2.085-0.226,2.897c0,0.302-0.041,0.516-0.124,0.646
					c-0.083,0.129-0.207,0.241-0.374,0.338c-0.601,0.347-1.107,0.459-1.513,0.334c-0.407-0.125-0.611-0.466-0.611-1.022
					c0-0.72,0.069-1.53,0.204-2.431c0.137-0.903,0.291-1.798,0.465-2.687c0.172-0.887,0.328-1.708,0.462-2.46
					c0.136-0.751,0.204-1.335,0.204-1.752c0-0.487-0.136-0.654-0.407-0.497c-0.271,0.156-0.584,0.57-0.938,1.237
					c-0.354,0.669-0.687,1.54-0.994,2.61c-0.309,1.071-0.57,2.324-0.78,3.756c-0.211,1.434-0.317,2.984-0.317,4.655
					c0,0.302-0.041,0.515-0.124,0.646c-0.083,0.128-0.207,0.241-0.373,0.337c-0.603,0.347-1.108,0.459-1.514,0.334
					c-0.407-0.124-0.611-0.465-0.611-1.022c0-1.021,0.072-2.117,0.215-3.29c0.143-1.174,0.313-2.314,0.509-3.426
					c0.195-1.11,0.396-2.143,0.599-3.093c0.203-0.953,0.372-1.712,0.509-2.278c0.12-0.509,0.323-0.847,0.61-1.013
					c0.165-0.095,0.384-0.116,0.655-0.066c0.271,0.053,0.58,0.396,0.927,1.031c0.316-0.6,0.648-1.162,0.994-1.688
					c0.302-0.453,0.637-0.901,1.007-1.346c0.369-0.445,0.749-0.781,1.141-1.008c0.497-0.287,0.888-0.269,1.175,0.053
					c0.286,0.322,0.512,0.806,0.678,1.453c0.346-0.663,0.708-1.301,1.084-1.914c0.317-0.508,0.675-1.01,1.074-1.508
					c0.399-0.496,0.809-0.866,1.231-1.11c0.196-0.113,0.397-0.153,0.599-0.12c0.204,0.033,0.389,0.124,0.554,0.273
					c0.166,0.147,0.297,0.344,0.396,0.589c0.098,0.245,0.148,0.517,0.148,0.819c0,0.466-0.072,1.039-0.216,1.725
					c-0.143,0.687-0.304,1.423-0.485,2.212c-0.181,0.789-0.344,1.584-0.487,2.385c-0.142,0.803-0.215,1.552-0.215,2.248
					c0,0.395,0.065,0.676,0.193,0.845c0.127,0.17,0.305,0.19,0.53,0.059c0.302-0.174,0.599-0.497,0.893-0.969
					c0.293-0.47,0.554-0.968,0.779-1.494c0.272-0.573,0.521-1.216,0.746-1.927c0.015-0.078,0.053-0.181,0.113-0.308
					c0.03-0.064,0.076-0.142,0.136-0.235c0.06-0.093,0.127-0.161,0.203-0.205c0.121-0.069,0.23-0.063,0.328,0.021
					c0.098,0.083,0.148,0.217,0.148,0.402c0,0.093-0.011,0.186-0.034,0.28c-0.024,0.095-0.049,0.196-0.08,0.306
					c-0.03,0.111-0.06,0.233-0.091,0.366c-0.331,1.002-0.701,1.936-1.108,2.796c-0.346,0.735-0.757,1.459-1.231,2.173
					c-0.475,0.716-0.991,1.234-1.549,1.556c-0.858,0.496-1.552,0.542-2.079,0.138C330.717,299.045,330.453,298.274,330.453,297.137z
					"/>
				<path style="fill:#FFFFFF;" d="M341.098,292.558c0.347-0.201,0.652-0.446,0.916-0.737c0.263-0.292,0.489-0.584,0.678-0.879
					c0.189-0.294,0.349-0.578,0.486-0.854c0.135-0.276,0.24-0.494,0.316-0.653l0.158-0.334c0.045-0.073,0.098-0.155,0.158-0.248
					c0.059-0.093,0.121-0.157,0.18-0.192c0.137-0.079,0.249-0.075,0.339,0.013c0.091,0.087,0.136,0.224,0.136,0.41
					c0,0.093-0.019,0.191-0.057,0.293c-0.037,0.102-0.071,0.209-0.101,0.319c-0.045,0.118-0.09,0.25-0.136,0.391
					c-0.316,0.764-0.67,1.466-1.062,2.11c-0.348,0.571-0.758,1.146-1.232,1.72c-0.474,0.576-1.022,1.042-1.638,1.398
					c-0.573,0.332-1.1,0.508-1.582,0.531c-0.483,0.023-0.898-0.092-1.244-0.344c-0.347-0.252-0.618-0.635-0.814-1.148
					c-0.196-0.514-0.294-1.141-0.294-1.883c0-1.323,0.158-2.621,0.475-3.894c0.317-1.273,0.715-2.437,1.197-3.493
					c0.483-1.055,1.007-1.955,1.571-2.699c0.565-0.744,1.096-1.259,1.593-1.546c0.346-0.201,0.67-0.282,0.972-0.25
					c0.301,0.037,0.565,0.156,0.791,0.362c0.225,0.206,0.403,0.492,0.531,0.86c0.127,0.366,0.192,0.783,0.192,1.246
					c0,0.416-0.06,0.957-0.181,1.617c-0.121,0.662-0.32,1.34-0.598,2.034c-0.279,0.695-0.656,1.372-1.131,2.027
					c-0.475,0.657-1.066,1.19-1.774,1.598c-0.166,0.096-0.34,0.161-0.521,0.197c-0.105,0.037-0.218,0.067-0.338,0.091
					c0,1.043,0.199,1.707,0.598,1.985C340.085,292.888,340.556,292.87,341.098,292.558z M339.2,289.13
					c0.406-0.235,0.79-0.632,1.152-1.188c0.362-0.556,0.675-1.161,0.939-1.813c0.263-0.649,0.47-1.285,0.622-1.908
					c0.15-0.62,0.225-1.114,0.225-1.487c0-0.463-0.136-0.617-0.406-0.461c-0.317,0.183-0.626,0.56-0.927,1.127
					c-0.302,0.569-0.569,1.198-0.803,1.89c-0.234,0.692-0.426,1.395-0.577,2.108C339.275,288.113,339.2,288.689,339.2,289.13z"/>
			</g>
			<path id="XMLID_40_" style="opacity:0.5;fill:#FAFAFA;" d="M351.128,255.329l1.273-2.696c0.151-0.319,0.151-0.694,0-0.839
				c-0.151-0.145-0.395-0.004-0.545,0.315l-1.273,2.696l-1.273-1.225c-0.151-0.145-0.394-0.004-0.545,0.315
				c-0.151,0.319-0.151,0.694,0,0.839l1.273,1.226l-1.273,2.696c-0.151,0.319-0.151,0.694,0,0.839
				c0.075,0.072,0.174,0.073,0.272,0.016c0.099-0.057,0.197-0.172,0.273-0.331l1.273-2.696l1.273,1.226
				c0.075,0.072,0.174,0.073,0.273,0.016c0.099-0.057,0.197-0.172,0.272-0.331c0.151-0.319,0.151-0.694,0-0.839L351.128,255.329z"/>
			<g>
				<path style="fill:#E0E0E0;" d="M279.574,340.348l56.845-32.819c0.396-0.229,0.717-0.043,0.716,0.414v0.163
					c0,0.457-0.321,1.013-0.717,1.242l-56.845,32.82c-0.396,0.229-0.717,0.043-0.716-0.414l0-0.163
					C278.856,341.132,279.178,340.576,279.574,340.348z"/>
				<path style="fill:#E0E0E0;" d="M279.574,345.513l56.845-32.819c0.396-0.229,0.717-0.043,0.716,0.414v0.163
					c0,0.457-0.321,1.013-0.717,1.242l-56.845,32.82c-0.396,0.229-0.717,0.043-0.716-0.414l0-0.163
					C278.856,346.297,279.178,345.741,279.574,345.513z"/>
			</g>
			<g>
				<path style="fill:#E0E0E0;" d="M312.509,343.492c0.691-0.399,1.252-0.076,1.252,0.723c0,0.798-0.56,1.769-1.251,2.168
					c-0.691,0.399-1.252,0.076-1.252-0.723S311.818,343.892,312.509,343.492z"/>
				<path style="fill:#E0E0E0;" d="M308.026,346.081c0.691-0.399,1.252-0.076,1.252,0.723c0,0.798-0.56,1.769-1.251,2.168
					c-0.691,0.399-1.252,0.076-1.252-0.723C306.774,347.451,307.335,346.48,308.026,346.081z"/>
				<path style="fill:#27DEBF;" d="M303.543,348.668c0.691-0.399,1.252-0.076,1.252,0.723c0,0.798-0.56,1.769-1.251,2.168
					c-0.691,0.399-1.252,0.076-1.252-0.722C302.291,350.039,302.851,349.068,303.543,348.668z"/>
			</g>
			<g>
				<g>
					<path style="fill:#27DEBF;" d="M348.668,317.466c-0.216-0.126-0.516-0.109-0.847,0.082l-11.06,6.385
						c-0.66,0.381-1.195,1.307-1.195,2.069l0,5.006c0,0.381,0.134,0.649,0.35,0.773c0.216,0.125,1.349,0.773,1.561,0.9
						c0.217,0.129,0.518,0.112,0.852-0.08l11.059-6.385c0.66-0.381,1.195-1.307,1.195-2.069v-5.006c0-0.386-0.137-0.655-0.358-0.778
						C350.01,318.243,348.883,317.591,348.668,317.466z"/>
					<path style="opacity:0.2;" d="M335.892,324.881c-0.198,0.361-0.326,0.759-0.326,1.121l0.001,5.006
						c0,0.381,0.134,0.649,0.35,0.773c0.216,0.125,1.349,0.773,1.561,0.899c0.217,0.129,0.518,0.113,0.851-0.08l5.463-3.154
						L335.892,324.881z"/>
					<path style="opacity:0.5;fill:#FFFFFF;" d="M348.669,317.466c-0.217-0.126-0.516-0.109-0.848,0.082l-11.059,6.385
						c-0.346,0.199-0.651,0.551-0.869,0.948v0l7.9,4.566l5.596-3.231c0.66-0.381,1.195-1.307,1.195-2.069v-5.006
						c0-0.386-0.137-0.655-0.358-0.778C350.01,318.243,348.883,317.591,348.669,317.466z"/>
					<path style="fill:#27DEBF;" d="M337.134,326.905l0.001,5.006c0,0.762,0.535,1.071,1.195,0.69l11.059-6.385
						c0.66-0.381,1.195-1.307,1.195-2.069l0-5.006c0-0.762-0.535-1.071-1.195-0.69l-11.06,6.385
						C337.669,325.217,337.134,326.144,337.134,326.905z"/>
				</g>
				<g>
					<path style="fill:#FAFAFA;" d="M341.362,328.876c-0.044,0.025-0.078,0.027-0.1,0.005c-0.024-0.023-0.04-0.04-0.05-0.055
						l-1.072-1.831v2.427c0,0.043-0.01,0.086-0.03,0.129c-0.021,0.043-0.044,0.073-0.072,0.088l-0.31,0.179
						c-0.028,0.017-0.053,0.015-0.072-0.004c-0.021-0.019-0.031-0.051-0.031-0.095v-3.807c0-0.043,0.011-0.086,0.031-0.129
						c0.019-0.043,0.044-0.072,0.072-0.088l0.268-0.155c0.043-0.025,0.077-0.027,0.099-0.004c0.023,0.021,0.04,0.039,0.05,0.054
						l1.072,1.832v-2.428c0-0.043,0.01-0.085,0.029-0.128c0.021-0.044,0.045-0.073,0.073-0.09l0.31-0.18
						c0.028-0.015,0.053-0.015,0.072,0.006c0.021,0.019,0.031,0.05,0.031,0.093v3.807c0,0.045-0.011,0.087-0.031,0.13
						c-0.019,0.042-0.044,0.072-0.072,0.089L341.362,328.876z"/>
					<path style="fill:#FAFAFA;" d="M342.234,326.84c0-0.22,0.022-0.44,0.065-0.659c0.043-0.22,0.106-0.423,0.188-0.615
						c0.082-0.191,0.18-0.36,0.297-0.511c0.115-0.149,0.246-0.265,0.388-0.347c0.143-0.083,0.273-0.116,0.388-0.103
						c0.117,0.013,0.214,0.065,0.297,0.153c0.081,0.088,0.144,0.21,0.189,0.367c0.045,0.156,0.068,0.335,0.068,0.536v0.265
						c0,0.043-0.011,0.086-0.031,0.129c-0.021,0.043-0.044,0.073-0.072,0.091l-1.279,0.737c0,0.09,0.013,0.163,0.037,0.218
						c0.025,0.055,0.057,0.095,0.098,0.116c0.041,0.024,0.087,0.032,0.142,0.026c0.053-0.008,0.108-0.028,0.164-0.06
						c0.081-0.046,0.148-0.097,0.198-0.153c0.052-0.056,0.094-0.112,0.127-0.17c0.028-0.047,0.051-0.082,0.068-0.103
						c0.018-0.023,0.042-0.043,0.073-0.06l0.306-0.177c0.028-0.017,0.053-0.015,0.074,0.004c0.021,0.018,0.032,0.05,0.029,0.095
						c-0.002,0.056-0.023,0.139-0.059,0.247c-0.037,0.107-0.093,0.223-0.166,0.349c-0.074,0.124-0.166,0.249-0.274,0.37
						c-0.109,0.121-0.234,0.224-0.377,0.306c-0.142,0.083-0.273,0.118-0.388,0.11c-0.117-0.01-0.216-0.061-0.297-0.155
						c-0.082-0.095-0.144-0.226-0.188-0.397C342.256,327.279,342.234,327.076,342.234,326.84z M343.172,325.415
						c-0.073,0.042-0.137,0.096-0.19,0.159c-0.052,0.064-0.096,0.132-0.132,0.205c-0.037,0.074-0.064,0.149-0.083,0.225
						c-0.018,0.075-0.031,0.146-0.037,0.206l0.865-0.499c-0.004-0.055-0.015-0.112-0.029-0.169
						c-0.014-0.056-0.037-0.102-0.068-0.137c-0.032-0.034-0.074-0.053-0.127-0.056C343.321,325.346,343.253,325.368,343.172,325.415
						z"/>
					<path style="fill:#FAFAFA;" d="M345.361,325.595l-0.452,1.121c-0.026,0.061-0.052,0.107-0.079,0.137
						c-0.026,0.029-0.057,0.054-0.089,0.072l-0.295,0.17c-0.028,0.016-0.051,0.014-0.071-0.007c-0.018-0.02-0.028-0.054-0.028-0.101
						c0-0.031,0.005-0.061,0.015-0.092l0.689-1.711l-0.657-0.875c-0.011-0.017-0.016-0.042-0.016-0.073
						c0-0.047,0.011-0.093,0.029-0.134c0.019-0.043,0.043-0.073,0.071-0.088l0.294-0.17c0.033-0.019,0.063-0.03,0.091-0.032
						c0.027-0.001,0.053,0.014,0.078,0.047l0.433,0.573l0.429-1.071c0.025-0.063,0.051-0.108,0.078-0.137
						c0.027-0.029,0.057-0.053,0.09-0.072l0.295-0.17c0.028-0.016,0.052-0.013,0.071,0.006c0.018,0.021,0.029,0.054,0.029,0.101
						c0,0.03-0.005,0.063-0.016,0.092l-0.665,1.663l0.681,0.897c0.01,0.017,0.015,0.043,0.015,0.073c0,0.047-0.01,0.093-0.029,0.135
						c-0.018,0.042-0.043,0.072-0.071,0.088l-0.294,0.169c-0.033,0.019-0.064,0.03-0.09,0.032c-0.026,0.001-0.052-0.014-0.079-0.046
						L345.361,325.595z"/>
					<path style="fill:#FAFAFA;" d="M347.459,324.248c0,0.122,0.021,0.207,0.063,0.256c0.042,0.048,0.12,0.04,0.235-0.026
						l0.234-0.136c0.028-0.016,0.053-0.014,0.072,0.007c0.021,0.019,0.031,0.05,0.031,0.094v0.388c0,0.044-0.011,0.087-0.031,0.13
						c-0.019,0.042-0.044,0.072-0.072,0.088l-0.283,0.164c-0.24,0.138-0.424,0.155-0.553,0.051s-0.194-0.341-0.194-0.709v-1.267
						l-0.252,0.145c-0.028,0.016-0.052,0.014-0.072-0.005c-0.021-0.019-0.031-0.051-0.031-0.094v-0.388
						c0-0.045,0.011-0.087,0.031-0.13s0.044-0.073,0.072-0.089l0.252-0.145v-0.96c0-0.043,0.011-0.086,0.031-0.129
						c0.021-0.043,0.044-0.073,0.072-0.091l0.292-0.168c0.028-0.015,0.052-0.013,0.072,0.007c0.02,0.019,0.031,0.051,0.031,0.094
						v0.96l0.494-0.285c0.028-0.017,0.052-0.015,0.071,0.005c0.022,0.019,0.031,0.051,0.031,0.094v0.388
						c0,0.045-0.01,0.087-0.031,0.13c-0.019,0.042-0.043,0.072-0.071,0.089l-0.494,0.285V324.248z"/>
				</g>
			</g>
		</g>
	</g>
</g>
<g id="Character">
	<g id="Character_18_">
		<g id="XMLID_4187_">
			<path style="fill:#37474F;" d="M415.781,242.587c-2.224-0.003-3.617,0.75-5.422,4.265c-1.805,3.515-1.835,13.552-0.878,19.445
				l-5.837,18.332c0,0,6.451,3.265,13.186,2.338C423.565,286.04,415.781,242.587,415.781,242.587z"/>
			<path style="fill:#FFA8A7;" d="M444.917,373.15c0,0,1.615-23.809,0.381-32.768c-1.058-7.687-2.299-10.879-2.519-12.626
				c0,0-1.897-18.063-2.054-33.412c-0.076-7.388-0.76-12.646-4.807-21.429l-26.035,6.228c-0.529,3.901-2.318,29.85-2.74,52.922
				c-0.37,20.197,0.206,37.881,0.206,37.881l0.026,1.063c0,1.18-0.259,2.005-1.018,3.9c-0.769,1.918-2.172,4.665-4.032,6.671
				c-0.536,0.578-4.248,3.826-4.738,4.518c-1.595,1.861,1.709,2.909,4.163,2.581c2.589-0.345,6.61-1.329,7.75-2.906
				c0.76-1.05,1.331-4.73,2.112-5.794c2.634-3.59,3.715-5.134,3.734-6.282c0.035-2.073-0.678-2.893-0.932-4.064
				c0.212-2.445,5.493-22.571,5.584-29.695c0.044-3.395-0.185-8.07-0.185-8.07l4.098-23.514c1.583,5.871,4.454,16.823,5.39,22.417
				c1.144,6.835,5.03,26.742,7.474,35.79c0.918,3.399,1.366,4.916,1.636,7.143c0.001,0.009,0.076,0.794,0.076,0.802
				c0.055,1.013,0.497,11.817,0.897,14.096c0.837,4.76,5.068,4.161,5.746,0.311c0.576-3.276-0.145-13.42-0.161-14.664
				L444.917,373.15z"/>
			<path id="XMLID_4195_" style="fill:#37474F;" d="M444.917,373.15c1.194,0.02,0.409,4.641,0.717,7.614
				c0.33,3.186,1.375,5.513,1.674,8.126c0.342,2.985,0.076,4.236-0.995,6.69c-0.832,1.909-5.016,4.524-6.603,1.795
				c-1.607-2.762-1.932-5.847-1.75-8.819c0.189-3.073,0.374-5.319,0.436-7.656c0.055-2.06-1.531-6.897,0.016-7.193l0.077,0.802
				c0.556,1.11,5.855,1.877,6.481-0.258L444.917,373.15z"/>
			<g id="XMLID_4189_">
				<g id="XMLID_4190_">
					<path id="XMLID_4194_" style="fill:#263238;" d="M415.598,376.207c0.365,1.489-0.013,5.572-0.013,5.572
						s-0.645,1.408-2.942,2.346l-1.031-5.678L415.598,376.207z"/>
					<polygon id="XMLID_4193_" points="412.643,384.124 407.578,382.461 406.358,377.966 412.048,380.847 					"/>
					<path id="XMLID_4192_" style="fill:#37474F;" d="M407.376,371.01l-0.027-1.063c-0.687,0.334-2.202,5.875-4.249,9.675
						c-1.869,3.47-5.574,5.404-6.776,6.913c-1.609,2.02,1.518,4.623,6.537,3.55c2.491-0.533,6.263-2.126,7.286-3.807
						c1.023-1.681,1.369-4.769,2.205-6.004c0.836-1.236,2.823-2.659,3.245-4.066c0.232-0.773,0.417-2.488-0.011-3.884
						c-0.393-1.28-0.736-2.828-1.173-2.689l-0.029,0.973c-0.336,0.685-1.548,1.482-4.083,1.619
						C409.097,372.292,407.928,372.108,407.376,371.01z"/>
				</g>
			</g>
			<path style="fill:#455A64;" d="M409.386,278.828c0,0-1.721,19.102-2.275,36.021c-0.554,16.919-0.059,38.743-0.059,38.743
				s1.746,1.249,5.591,1.421c3.844,0.172,5.174-1.109,5.174-1.109s2.348-7.666,2.716-13.062s0-8.777,0-8.777l3.433-22.573
				c0,0,4.522,21.111,5.016,23.798c0.494,2.688,5.231,22.446,5.231,22.446s2.626,2.023,6.304,1.533
				c3.678-0.49,5.196-2.257,5.196-2.257s0.759-10.157,0.049-15.598c-0.709-5.44-2.17-9.607-2.421-13.163
				c-0.25-3.556,0.25-22.828,0-30.54c-0.25-7.713-0.073-10.452-6.108-24.224L409.386,278.828z"/>
			<path style="fill:#37474F;" d="M423.966,309.492l-2.855-14.14c0,0-4.982-1.301-7.304-4.342c0,0,0.645,3.373,5.766,5.529
				l3.039,14.089l-1.033,14.555L423.966,309.492z"/>
		</g>
		<g>
			<path id="XMLID_427_" style="fill:#FFA8A7;" d="M406.192,250.611c-3.138,5.986-6.116,13.283-8.441,15.705
				c-4.414,2.053-14.498,5.894-18.555,6.422c-0.719,0.094-1.442-0.09-2.036-0.479c-1.595-1.046-2.829-1.215-4.511-1.797
				c-1.317-0.456-1.875-1.084-2.122-0.845c-0.318,0.307-0.664,1.181,0.137,2.086c0.403,0.455,1.138,0.952,2.084,1.559
				c0,0-2.901,0.774-5.492,0.094c-3.512-0.922-5.17,0.767-2.795,4.58c0.851,1.366,4.199,3.552,10.985,2.962
				c1.955-0.17,4.777-0.333,7.21-0.853c6.509-1.389,13.459-3.42,17.908-4.749c1.122-0.335,3.127-1.634,4.321-2.994
				c7.483-8.529,11.157-16.089,14.437-21.613l-3.025-8.101C410.996,242.423,408.891,245.46,406.192,250.611z"/>
			<path style="fill:#455A64;" d="M415.781,242.587c-4.085-0.3-5.225,0.367-6.685,2.155c-3.958,4.846-10.91,21.06-11.023,21.201
				c-0.113,0.141-5.043,2.381-5.043,2.381s2.629,4.411,2.02,8.581c0,0,4.828-1.063,6.556-1.724c1.728-0.66,2.337-1.118,3.963-2.998
				c1.626-1.88,10.713-12.652,10.713-12.652L415.781,242.587z"/>
			<path id="XMLID_4176_" style="fill:#27DEBF;" d="M427.201,242.486c0,0,7.024,1.006,7.024,1.008
				c-1.277,7.579,2.311,14.247,2.311,14.247l-2.236,11.533c0.091,1.374,2.95,3.086,4.727,9.189
				c-4.154,5.561-23.68,7.957-30.324,3.077c0.191-4.073,1.791-9.224,1.994-11.211l-0.336-7.191
				c-8.327-6.834,1.724-17.241,5.422-20.55h3.466L427.201,242.486z"/>
			<path style="fill:#37474F;" d="M427.201,242.486c0,0-2.622,13.844-2.029,17.314c0.593,3.47,2.894,29.37,2.894,29.37
				s9.597,1.429,15.276-4.542l-7.547-18.622l3.232-15.647l-2.756-6.866C436.271,243.494,435.191,242.855,427.201,242.486z"/>
			<g>
				<path id="XMLID_788_" style="fill:#FFA8A7;" d="M453.612,272.005c-1.55-6.052-6.765-16.466-8.635-21.327
					c-2.135-5.552-5.81-7.516-9.78-7.572c-1.46,1.885-2.072,11.341,2.427,16.76c1.915,4.034,6.288,12.487,6.288,12.487
					c-0.149,1.088-3.091,12.285-4.799,15.98c-0.302,0.655-0.851,1.162-1.512,1.45c-1.774,0.772-3.851,2.712-5.263,3.808
					c-1.106,0.858-1.958,0.986-1.879,1.323c0.101,0.433,0.684,1.199,1.91,1.016c0.617-0.092,2.471-0.952,3.512-1.417
					c0,0-1.65,2.659-3.512,4.806c-2.384,2.748-2.301,5.104,2.341,5.176c3.512,0.054,5.364-1.921,8.476-7.939
					c0.897-1.734,2.189-4.034,3.262-6.263c2.711-5.631,3.238-6.133,4.72-9.736C453.503,274.877,454.21,274.339,453.612,272.005z"/>
				<path style="fill:#455A64;" d="M433.423,242.962c4.396-0.041,7.644,0.355,10.178,4.078c2.534,3.722,9.003,20.451,9.874,22.986
					c0.871,2.534,0.987,3.864-2.206,10.538c0,0-4.074-0.124-8.735-3.074l0.883-5.088l-6.31-12.056
					C437.106,260.345,432.036,252.902,433.423,242.962z"/>
			</g>
		</g>
		<g id="XMLID_2140_">
			<path style="fill:#263238;" d="M427.105,239.37c0.034-1.27,4.223-4.304,6.341-7.509c1.962-2.97,4.706-11.149-1.795-13.764
				c0,0,1.399-3.925-1.147-6.233s-5.983-0.885-6.524,0.084c0,0-0.947-4.062-5.445-4.279c-4.497-0.217-5.332,3.978-5.332,3.978
				s-3.552-1.628-5.935,1.661c-2.383,3.289,0.781,6.304,0.781,6.304s-1.43,0.902-1.211,2.512c0.189,1.393,1.52,1.736,1.678,2.428
				c0.158,0.692-0.718,1.1-1.169,0.606c0,0,0.146,1.194,1.649,1.112c1.503-0.082,2.838-2.12,2.838-2.12L427.105,239.37z"/>
			<path id="XMLID_4168_" style="fill:#FFA8A7;" d="M413.451,217.685c-1.924,0.834-3.752,3.775-3.724,12.006
				c0.023,6.976,2.162,8.74,3.243,9.258c1.081,0.517,3.189,0.256,5.24-0.059l-0.008,4.01c0,0-4.932,5.428-1.607,7.719
				c8.575-1.5,10.459-7.947,10.459-7.947l0.151-8.744c0,0,1.18,1.24,3.255-0.578c1.713-1.5,2.329-4.074,1.043-5.486
				c-1.286-1.412-2.939-1.526-4.431,0.052c0,0-3.12,0.429-7.233-2.154C415.629,223.119,413.866,220.36,413.451,217.685z"/>
			<g id="XMLID_4155_">
				<path id="XMLID_4156_" style="fill:#263238;" d="M413.269,227.321c0.02,0.531-0.379,0.975-0.89,0.993
					c-0.511,0.017-0.941-0.399-0.961-0.931c-0.019-0.531,0.379-0.975,0.891-0.993C412.82,226.373,413.25,226.79,413.269,227.321z"/>
			</g>
			<g id="XMLID_4152_">
				<path id="XMLID_4153_" style="fill:#263238;" d="M420.652,227.735c0.021,0.57-0.407,1.047-0.956,1.066
					c-0.549,0.018-1.01-0.429-1.031-0.999c-0.021-0.57,0.407-1.047,0.956-1.065C420.169,226.718,420.631,227.165,420.652,227.735z"
					/>
			</g>
			<path id="XMLID_4100_" style="fill:#F28F8F;" d="M419.198,233.57l-2.814,0.875c0.217,0.838,1.022,1.321,1.799,1.079
				C418.96,235.283,419.415,234.408,419.198,233.57z"/>
			<path id="XMLID_4098_" style="fill:#263238;" d="M410.819,225.599l2.386-0.947c-0.217-0.693-0.994-0.993-1.653-0.731
				C410.893,224.182,410.601,224.906,410.819,225.599z"/>
			<path id="XMLID_4097_" style="fill:#263238;" d="M427.059,226.78l-0.024,3.875c-1.036,0.035-1.871-0.805-1.865-1.875
				C425.177,227.71,426.023,226.814,427.059,226.78z"/>
			<polygon id="XMLID_4096_" style="fill:#F28F8F;" points="416.384,226.793 415.636,232.459 413.113,231.233 			"/>
			<path id="XMLID_4095_" style="fill:#F28F8F;" d="M418.21,238.889c2.159-0.253,6.616-1.492,7.341-3.303
				c0,0-0.252,1.142-1.598,2.298c-1.346,1.155-5.746,2.355-5.746,2.355L418.21,238.889z"/>
		</g>
	</g>
</g>
</svg>
